<svg width="78" height="91" viewBox="0 0 78 91" fill="none" xmlns="http://www.w3.org/2000/svg">
<path fill-rule="evenodd" clip-rule="evenodd" d="M34.927 79.308C68.354 63.872 68.354 16.496 68.354 16.496C50.694 14.263 34.927 1.5 34.927 1.5C34.927 1.5 19.16 14.263 1.5 16.496C1.5 16.496 1.5 63.872 34.927 79.308Z" fill="white" stroke="#1C1F34" stroke-width="3" stroke-linecap="round" stroke-linejoin="round"/>
<path fill-rule="evenodd" clip-rule="evenodd" d="M53.476 55.102C53.477 54.284 53.63 53.566 53.892 52.938C43.66 53.222 35.419 61.614 35.419 71.914C35.419 74.357 35.899 76.687 36.743 78.835C37.048 78.646 37.375 78.475 37.737 78.333C41.452 76.876 44.925 75 48.299 72.957C51.082 67.336 53.467 61.468 53.476 55.102Z" fill="#DEDEDE"/>
<path fill-rule="evenodd" clip-rule="evenodd" d="M62.058 21.445C50.354 18.711 40.181 12.55 34.927 8.93604V40.404H58.381C60.676 32.86 61.65 25.889 62.058 21.445Z" fill="#AB651E"/>
<path fill-rule="evenodd" clip-rule="evenodd" d="M34.927 40.4041H11.473C15.065 52.2111 21.9 65.4261 34.927 72.5911V40.4041Z" fill="#AB651E"/>
<path fill-rule="evenodd" clip-rule="evenodd" d="M34.927 72.591C13.576 60.849 8.842 32.849 7.795 21.445C19.501 18.711 29.673 12.551 34.927 8.93701C40.181 12.551 50.354 18.711 62.058 21.445C61.012 32.844 56.279 60.848 34.927 72.591Z" stroke="#1C1F34" stroke-width="3" stroke-linecap="round" stroke-linejoin="round"/>
<path fill-rule="evenodd" clip-rule="evenodd" d="M75.922 71.913C75.922 62.248 68.086 54.411 58.42 54.411C48.754 54.411 40.918 62.248 40.918 71.913C40.918 81.579 48.754 89.415 58.42 89.415C68.086 89.415 75.922 81.579 75.922 71.913Z" fill="#AB651E"/>
<path fill-rule="evenodd" clip-rule="evenodd" d="M75.922 71.913C75.922 62.248 68.086 54.411 58.42 54.411C48.754 54.411 40.918 62.248 40.918 71.913C40.918 81.579 48.754 89.415 58.42 89.415C68.086 89.415 75.922 81.579 75.922 71.913Z" stroke="#1C1F34" stroke-width="3" stroke-linecap="round" stroke-linejoin="round"/>
<path d="M49.904 74.822L54.061 78.979L66.774 66.266" stroke="white" stroke-width="3" stroke-linecap="round" stroke-linejoin="round"/>
<path d="M34.5 8.93604V72.59" stroke="#1C1F34" stroke-width="3" stroke-linecap="round" stroke-linejoin="round"/>
<path d="M11.47 40.5H58.273" stroke="#1C1F34" stroke-width="3" stroke-linecap="round" stroke-linejoin="round"/>
</svg>
