<svg width="104" height="91" viewBox="0 0 104 91" fill="none" xmlns="http://www.w3.org/2000/svg">
<path fill-rule="evenodd" clip-rule="evenodd" d="M27.987 16.393C27.98 20.785 27.953 25.177 27.924 29.569H49.013L55.277 35.832C55.751 36.307 56.381 36.559 57.024 36.559C57.343 36.559 57.666 36.498 57.974 36.37C58.902 35.986 59.502 35.088 59.502 34.083V29.44C62.654 28.82 65.037 26.036 65.037 22.705V16.387C58.229 16.421 37.809 16.418 27.987 16.393Z" fill="#DEDEDE"/>
<path fill-rule="evenodd" clip-rule="evenodd" d="M75.507 58.203C64.001 58.315 66.992 58.47 55.483 58.556V65.967C55.483 69.906 58.337 73.191 62.084 73.866V77.514C62.084 78.647 62.762 79.661 63.81 80.094C64.157 80.238 64.52 80.308 64.88 80.308C65.606 80.308 66.316 80.024 66.852 79.489L73.359 73.993H75.809C75.953 68.724 75.704 63.465 75.507 58.203Z" fill="#DEDEDE"/>
<path fill-rule="evenodd" clip-rule="evenodd" d="M27.146 48.538V13.166C27.146 10.126 29.611 7.66003 32.651 7.66003H70.561C73.601 7.66003 76.066 10.126 76.066 13.166V48.538V83.909C76.066 86.951 73.601 89.415 70.561 89.415H32.651C29.611 89.415 27.146 86.951 27.146 83.909V48.538Z" fill="#1C1F34"/>
<path d="M76 18H28V79H76V18Z" fill="white"/>
<path fill-rule="evenodd" clip-rule="evenodd" d="M27.5 48.5V13.022C27.5 9.972 29.919 7.5 32.901 7.5H70.099C73.081 7.5 75.5 9.972 75.5 13.022V48.5V83.978C75.5 87.028 73.081 89.5 70.099 89.5H32.901C29.919 89.5 27.5 87.028 27.5 83.978V48.5Z" stroke="#1C1F34" stroke-width="3" stroke-linecap="round" stroke-linejoin="round"/>
<path fill-rule="evenodd" clip-rule="evenodd" d="M6.917 1.5H57.977C60.968 1.5 63.394 3.925 63.394 6.917V18.644C63.394 21.636 60.968 24.061 57.977 24.061V29.779C57.977 30.779 56.768 31.279 56.061 30.572L49.549 24.061H6.917C3.925 24.061 1.5 21.636 1.5 18.644V6.917C1.5 3.925 3.925 1.5 6.917 1.5Z" fill="#AB651E"/>
<path fill-rule="evenodd" clip-rule="evenodd" d="M6.839 1.5H57.161C60.109 1.5 62.5 3.892 62.5 6.843V18.409C62.5 21.36 60.109 23.5 57.161 23.5V29.391C57.161 30.378 55.97 30.871 55.273 30.173L48.855 23.5H6.839C3.89 23.5 1.5 21.36 1.5 18.409V6.843C1.5 3.892 3.89 1.5 6.839 1.5Z" stroke="#1C1F34" stroke-width="3" stroke-linecap="round" stroke-linejoin="round"/>
<path fill-rule="evenodd" clip-rule="evenodd" d="M96.376 34.623H63.509C59.863 34.623 56.908 37.578 56.908 41.224V61.867C56.908 65.513 59.863 68.469 63.509 68.469V73.414C63.509 74.633 64.983 75.243 65.844 74.381L72.768 68.469H96.376C100.022 68.469 102.978 65.513 102.978 61.867V41.224C102.978 37.578 100.022 34.623 96.376 34.623Z" fill="#AB651E"/>
<path fill-rule="evenodd" clip-rule="evenodd" d="M95.908 34.5H63.091C59.451 34.5 56.5 37.444 56.5 41.075V60.635C56.5 64.266 59.451 67.5 63.091 67.5V72.135C63.091 73.349 64.563 73.957 65.422 73.098L72.336 67.5H95.908C99.548 67.5 102.5 64.266 102.5 60.635V41.075C102.5 37.444 99.548 34.5 95.908 34.5Z" stroke="#1C1F34" stroke-width="3" stroke-linecap="round" stroke-linejoin="round"/>
<path fill-rule="evenodd" clip-rule="evenodd" d="M11.325 9.79099C11.268 9.97399 11.105 10.098 10.921 10.098H8.42501C8.01401 10.098 7.84301 10.648 8.17601 10.901L10.195 12.436C10.344 12.549 10.406 12.75 10.35 12.933L9.57801 15.416C9.45101 15.825 9.89901 16.166 10.231 15.913L12.251 14.379C12.4 14.265 12.601 14.265 12.749 14.379L14.769 15.913C15.101 16.166 15.549 15.825 15.422 15.416L14.65 12.933C14.594 12.75 14.656 12.549 14.805 12.436L16.824 10.901C17.157 10.648 16.986 10.098 16.575 10.098H14.079C13.895 10.098 13.732 9.97399 13.675 9.79099L12.904 7.30699C12.777 6.89799 12.223 6.89799 12.096 7.30699L11.325 9.79099Z" fill="white"/>
<path fill-rule="evenodd" clip-rule="evenodd" d="M21.325 9.79099C21.268 9.97399 21.105 10.098 20.921 10.098H18.425C18.014 10.098 17.843 10.648 18.176 10.901L20.195 12.436C20.344 12.549 20.406 12.75 20.35 12.933L19.578 15.416C19.451 15.825 19.899 16.166 20.231 15.913L22.251 14.379C22.4 14.265 22.601 14.265 22.749 14.379L24.769 15.913C25.101 16.166 25.549 15.825 25.422 15.416L24.65 12.933C24.594 12.75 24.656 12.549 24.805 12.436L26.824 10.901C27.157 10.648 26.986 10.098 26.575 10.098H24.079C23.895 10.098 23.732 9.97399 23.675 9.79099L22.904 7.30699C22.777 6.89799 22.223 6.89799 22.096 7.30699L21.325 9.79099Z" fill="white"/>
<path fill-rule="evenodd" clip-rule="evenodd" d="M31.325 9.79099C31.268 9.97399 31.105 10.098 30.921 10.098H28.425C28.014 10.098 27.843 10.648 28.176 10.901L30.195 12.436C30.344 12.549 30.406 12.75 30.35 12.933L29.578 15.416C29.451 15.825 29.899 16.166 30.231 15.913L32.251 14.379C32.4 14.265 32.601 14.265 32.749 14.379L34.769 15.913C35.101 16.166 35.549 15.825 35.422 15.416L34.65 12.933C34.594 12.75 34.656 12.549 34.805 12.436L36.824 10.901C37.157 10.648 36.986 10.098 36.575 10.098H34.079C33.895 10.098 33.732 9.97399 33.675 9.79099L32.904 7.30699C32.777 6.89799 32.223 6.89799 32.096 7.30699L31.325 9.79099Z" fill="white"/>
<path fill-rule="evenodd" clip-rule="evenodd" d="M41.325 9.79099C41.268 9.97399 41.105 10.098 40.921 10.098H38.425C38.014 10.098 37.843 10.648 38.176 10.901L40.195 12.436C40.344 12.549 40.406 12.75 40.35 12.933L39.578 15.416C39.451 15.825 39.899 16.166 40.231 15.913L42.251 14.379C42.4 14.265 42.601 14.265 42.749 14.379L44.769 15.913C45.101 16.166 45.549 15.825 45.422 15.416L44.65 12.933C44.594 12.75 44.656 12.549 44.805 12.436L46.824 10.901C47.157 10.648 46.986 10.098 46.575 10.098H44.079C43.895 10.098 43.732 9.97399 43.675 9.79099L42.904 7.30699C42.777 6.89799 42.223 6.89799 42.096 7.30699L41.325 9.79099Z" fill="white"/>
<path fill-rule="evenodd" clip-rule="evenodd" d="M51.325 9.79099C51.268 9.97399 51.105 10.098 50.921 10.098H48.425C48.014 10.098 47.843 10.648 48.176 10.901L50.195 12.436C50.344 12.549 50.406 12.75 50.35 12.933L49.578 15.416C49.451 15.825 49.899 16.166 50.231 15.913L52.251 14.379C52.4 14.265 52.601 14.265 52.749 14.379L54.769 15.913C55.101 16.166 55.549 15.825 55.422 15.416L54.65 12.933C54.594 12.75 54.656 12.549 54.805 12.436L56.824 10.901C57.157 10.648 56.986 10.098 56.575 10.098H54.079C53.895 10.098 53.732 9.97399 53.675 9.79099L52.904 7.30699C52.777 6.89799 52.223 6.89799 52.096 7.30699L51.325 9.79099Z" fill="white"/>
<path fill-rule="evenodd" clip-rule="evenodd" d="M72.116 61V58.577C68.793 58.146 67.215 55.858 67 53.934L69.964 53.254C70.108 54.681 71.112 55.995 73.311 55.995C74.865 55.995 75.772 55.293 75.772 54.296C75.772 53.526 75.176 52.936 73.979 52.688L71.781 52.235C69.199 51.69 67.598 50.151 67.598 47.976C67.598 45.575 69.558 43.808 72.116 43.423V41H74.554V43.491C77.302 43.968 78.497 45.779 78.832 47.297L75.893 48.089C75.749 47.297 75.128 45.983 73.168 45.983C71.638 45.983 70.801 46.821 70.801 47.749C70.801 48.453 71.328 49.041 72.45 49.268L74.626 49.743C77.638 50.377 79 52.076 79 54.114C79 56.199 77.422 58.124 74.554 58.554V61H72.116Z" fill="white"/>
<path fill-rule="evenodd" clip-rule="evenodd" d="M86.116 61V58.577C82.793 58.146 81.215 55.858 81 53.934L83.964 53.254C84.108 54.681 85.112 55.995 87.311 55.995C88.865 55.995 89.772 55.293 89.772 54.296C89.772 53.526 89.176 52.936 87.979 52.688L85.781 52.235C83.199 51.69 81.598 50.151 81.598 47.976C81.598 45.575 83.558 43.808 86.116 43.423V41H88.554V43.491C91.302 43.968 92.497 45.779 92.832 47.297L89.893 48.089C89.749 47.297 89.128 45.983 87.168 45.983C85.638 45.983 84.801 46.821 84.801 47.749C84.801 48.453 85.328 49.041 86.45 49.268L88.626 49.743C91.638 50.377 93 52.076 93 54.114C93 56.199 91.422 58.124 88.554 58.554V61H86.116Z" fill="white"/>
</svg>
