<svg width="90" height="91" viewBox="0 0 90 91" fill="none" xmlns="http://www.w3.org/2000/svg">
<path fill-rule="evenodd" clip-rule="evenodd" d="M68.447 72.014C68.162 66.358 67.914 60.702 67.858 55.038C67.027 54.926 66.186 54.849 65.325 54.849C55.44 54.849 47.347 62.439 46.435 72.089C53.772 72.079 61.11 72.047 68.447 72.014Z" fill="#DEDEDE"/>
<path fill-rule="evenodd" clip-rule="evenodd" d="M69.538 25H2.462C1.654 25 1 24.328 1 23.5C1 22.672 1.654 22 2.462 22H69.538C70.346 22 71 22.672 71 23.5C71 24.328 70.346 25 69.538 25Z" fill="#DEDEDE"/>
<path fill-rule="evenodd" clip-rule="evenodd" d="M70.5 73.5H34.378H1.5V7.5H70.5V73.5Z" fill="white" stroke="#1C1F34" stroke-width="3" stroke-linecap="round" stroke-linejoin="round"/>
<path fill-rule="evenodd" clip-rule="evenodd" d="M1.5 21.3801H70.325V7.58606H1.5V21.3801Z" fill="#AB651E"/>
<path d="M1.5 21.5H70.5" stroke="#1C1F34" stroke-width="3" stroke-linecap="round" stroke-linejoin="round"/>
<path fill-rule="evenodd" clip-rule="evenodd" d="M56.448 1.5H56.358C54.926 1.5 53.765 2.661 53.765 4.093V12.845C53.765 14.277 54.926 15.438 56.358 15.438H56.448C57.88 15.438 59.041 14.277 59.041 12.845V4.093C59.041 2.661 57.88 1.5 56.448 1.5Z" fill="white"/>
<path fill-rule="evenodd" clip-rule="evenodd" d="M56.551 1.5H56.449C54.82 1.5 53.5 2.666 53.5 4.105V12.895C53.5 14.334 54.82 15.5 56.449 15.5H56.551C58.18 15.5 59.5 14.334 59.5 12.895V4.105C59.5 2.666 58.18 1.5 56.551 1.5Z" stroke="#1C1F34" stroke-width="3" stroke-linecap="round" stroke-linejoin="round"/>
<path fill-rule="evenodd" clip-rule="evenodd" d="M35.958 1.5H35.868C34.436 1.5 33.275 2.661 33.275 4.093V12.845C33.275 14.277 34.436 15.438 35.868 15.438H35.958C37.39 15.438 38.551 14.277 38.551 12.845V4.093C38.551 2.661 37.39 1.5 35.958 1.5Z" fill="white"/>
<path fill-rule="evenodd" clip-rule="evenodd" d="M36.551 1.5H36.449C34.82 1.5 33.5 2.666 33.5 4.105V12.895C33.5 14.334 34.82 15.5 36.449 15.5H36.551C38.18 15.5 39.5 14.334 39.5 12.895V4.105C39.5 2.666 38.18 1.5 36.551 1.5Z" stroke="#1C1F34" stroke-width="3" stroke-linecap="round" stroke-linejoin="round"/>
<path fill-rule="evenodd" clip-rule="evenodd" d="M15.467 1.5H15.377C13.945 1.5 12.784 2.661 12.784 4.093V12.845C12.784 14.277 13.945 15.438 15.377 15.438H15.467C16.899 15.438 18.06 14.277 18.06 12.845V4.093C18.06 2.661 16.899 1.5 15.467 1.5Z" fill="white"/>
<path fill-rule="evenodd" clip-rule="evenodd" d="M15.551 1.5H15.449C13.82 1.5 12.5 2.666 12.5 4.105V12.895C12.5 14.334 13.82 15.5 15.449 15.5H15.551C17.18 15.5 18.5 14.334 18.5 12.895V4.105C18.5 2.666 17.18 1.5 15.551 1.5Z" stroke="#1C1F34" stroke-width="3" stroke-linecap="round" stroke-linejoin="round"/>
<path fill-rule="evenodd" clip-rule="evenodd" d="M10.5 65.5H61.5V28.5H10.5V65.5Z" stroke="#1C1F34" stroke-width="3" stroke-linecap="round" stroke-linejoin="round"/>
<path d="M27.5 28.439V65.047" stroke="#1C1F34" stroke-width="3" stroke-linecap="round" stroke-linejoin="round"/>
<path d="M44.5 28.439V65.047" stroke="#1C1F34" stroke-width="3" stroke-linecap="round" stroke-linejoin="round"/>
<path d="M61.266 40.791H10.559" stroke="#1C1F34" stroke-width="3" stroke-linecap="round" stroke-linejoin="round"/>
<path d="M61.266 53.4189H10.559" stroke="#1C1F34" stroke-width="3" stroke-linecap="round" stroke-linejoin="round"/>
<path fill-rule="evenodd" clip-rule="evenodd" d="M87.858 71.882C87.858 62.199 80.008 54.349 70.325 54.349C60.641 54.349 52.791 62.199 52.791 71.882C52.791 81.565 60.641 89.415 70.325 89.415C80.008 89.415 87.858 81.565 87.858 71.882Z" fill="#8EB0FF"/>
<path fill-rule="evenodd" clip-rule="evenodd" d="M87.858 71.882C87.858 62.199 80.008 54.349 70.325 54.349C60.641 54.349 52.791 62.199 52.791 71.882C52.791 81.565 60.641 89.415 70.325 89.415C80.008 89.415 87.858 81.565 87.858 71.882Z" stroke="#3A427C" stroke-width="3" stroke-linecap="round" stroke-linejoin="round"/>
<path fill-rule="evenodd" clip-rule="evenodd" d="M87.858 71.882C87.858 62.199 80.008 54.349 70.325 54.349C60.641 54.349 52.791 62.199 52.791 71.882C52.791 81.565 60.641 89.415 70.325 89.415C80.008 89.415 87.858 81.565 87.858 71.882Z" fill="#AB651E"/>
<path d="M84.723 57.484L82.781 59.426" stroke="#1C1F34" stroke-width="3" stroke-linecap="round" stroke-linejoin="round"/>
<path fill-rule="evenodd" clip-rule="evenodd" d="M87.858 71.882C87.858 62.199 80.008 54.349 70.325 54.349C60.641 54.349 52.791 62.199 52.791 71.882C52.791 81.565 60.641 89.415 70.325 89.415C80.008 89.415 87.858 81.565 87.858 71.882Z" stroke="#1C1F34" stroke-width="3" stroke-linecap="round" stroke-linejoin="round"/>
<path fill-rule="evenodd" clip-rule="evenodd" d="M70.5 46.328C68.291 46.328 66.5 48.225 66.5 50.565V54.348H74.5V50.565C74.5 48.225 72.709 46.328 70.5 46.328Z" fill="#677BC5"/>
<path fill-rule="evenodd" clip-rule="evenodd" d="M70.5 46.5C68.291 46.5 66.5 48.392 66.5 50.726V54.5H74.5V50.726C74.5 48.392 72.709 46.5 70.5 46.5Z" stroke="#1C1F34" stroke-width="3" stroke-linecap="round" stroke-linejoin="round"/>
<path d="M70.5 71.882V83.563" stroke="white" stroke-width="3" stroke-linecap="round" stroke-linejoin="round"/>
<path fill-rule="evenodd" clip-rule="evenodd" d="M74 71.5C74 69.566 72.433 68 70.501 68C68.567 68 67 69.566 67 71.5C67 73.434 68.567 75 70.501 75C72.433 75 74 73.434 74 71.5Z" fill="white"/>
<path d="M40.621 69.5H52.792" stroke="#1C1F34" stroke-width="3" stroke-linecap="round" stroke-linejoin="round"/>
<path d="M53.946 77.5H33.968" stroke="#1C1F34" stroke-width="3" stroke-linecap="round" stroke-linejoin="round"/>
<path d="M55.619 81.5H44.51" stroke="#1C1F34" stroke-width="3" stroke-linecap="round" stroke-linejoin="round"/>
</svg>
