<svg width="94" height="90" viewBox="0 0 94 90" fill="none" xmlns="http://www.w3.org/2000/svg">
<g clip-path="url(#clip0)">
<path fill-rule="evenodd" clip-rule="evenodd" d="M73.616 19.571C70.578 19.305 68.331 16.627 68.597 13.59C68.863 10.552 71.541 8.306 74.578 8.572C77.615 8.838 79.863 11.515 79.597 14.552C79.331 17.59 76.653 19.837 73.616 19.571ZM89.317 30.497L86.225 11.477C84.839 5.324 79.097 1.159 72.819 1.752L53.778 4.715C50.192 5.054 46.925 6.918 44.811 9.834L11.442 55.834C9.888 57.976 10.365 60.971 12.506 62.524L47.175 87.675C49.317 89.228 52.312 88.751 53.866 86.61L87.235 40.61C89.35 37.695 90.109 34.01 89.317 30.497Z" fill="#F27F0B"/>
<path opacity="0.3" fill-rule="evenodd" clip-rule="evenodd" d="M68.813 11.538C69.13 14.56 67.057 17.254 64.183 17.556C61.308 17.859 58.721 15.654 58.403 12.632C58.085 9.61 60.158 6.915 63.033 6.613C65.907 6.311 68.495 8.516 68.813 11.538ZM73.141 52.984L79.746 37.943C79.712 37.554 79.678 37.166 79.616 36.779L77.471 16.991C76.265 9.748 70.164 4.549 63.267 4.809C63.239 4.81 44.349 6.728 44.349 6.728C43.518 6.762 42.704 6.892 41.906 7.079C39.12 8.239 36.849 10.474 35.582 13.358L18.76 58.611C17.714 60.995 18.714 63.838 20.994 64.963L47.258 87.639L73.141 52.984Z" fill="#1C1F34"/>
<path fill-rule="evenodd" clip-rule="evenodd" d="M73.616 19.571C70.578 19.305 68.331 16.627 68.597 13.59C68.863 10.552 71.541 8.306 74.578 8.572C77.615 8.838 79.863 11.515 79.597 14.552C79.331 17.59 76.653 19.837 73.616 19.571ZM89.317 30.497L86.225 11.477C84.839 5.324 79.097 1.159 72.819 1.752L53.778 4.715C50.192 5.054 46.925 6.918 44.811 9.834L11.442 55.834C9.888 57.976 10.365 60.971 12.506 62.524L47.175 87.675C49.317 89.228 52.312 88.751 53.866 86.61L87.235 40.61C89.35 37.695 90.109 34.01 89.317 30.497Z" stroke="#1C1F34" stroke-width="3" stroke-linecap="round" stroke-linejoin="round"/>
<path fill-rule="evenodd" clip-rule="evenodd" d="M78.293 18.011C80.449 15.855 80.449 12.36 78.293 10.204C76.137 8.048 72.642 8.048 70.486 10.204C68.33 12.36 68.33 15.855 70.486 18.011C72.642 20.167 76.137 20.167 78.293 18.011Z" fill="white"/>
<path fill-rule="evenodd" clip-rule="evenodd" d="M78.293 18.011C80.449 15.855 80.449 12.36 78.293 10.204C76.137 8.048 72.642 8.048 70.486 10.204C68.33 12.36 68.33 15.855 70.486 18.011C72.642 20.167 76.137 20.167 78.293 18.011Z" stroke="#3A427C" stroke-width="3" stroke-linecap="round" stroke-linejoin="round"/>
<path fill-rule="evenodd" clip-rule="evenodd" d="M78.293 18.011C76.137 20.167 72.642 20.167 70.486 18.011C68.33 15.855 68.33 12.36 70.486 10.204C72.642 8.048 76.137 8.048 78.293 10.204C80.449 12.36 80.449 15.855 78.293 18.011ZM86.97 33.771L86.903 13.757C86.486 7.22 81.277 2.01 74.74 1.593L54.726 1.526C50.993 1.288 47.337 2.668 44.692 5.313L2.95701 47.048C1.01401 48.991 1.01401 52.141 2.95701 54.084L34.413 85.539C36.356 87.482 39.506 87.482 41.449 85.539L83.184 43.804C85.829 41.159 87.208 37.504 86.97 33.771Z" fill="white"/>
<path fill-rule="evenodd" clip-rule="evenodd" d="M78.293 18.011C76.137 20.167 72.642 20.167 70.486 18.011C68.33 15.855 68.33 12.36 70.486 10.204C72.642 8.048 76.137 8.048 78.293 10.204C80.449 12.36 80.449 15.855 78.293 18.011ZM86.97 33.771L86.903 13.757C86.486 7.22 81.277 2.01 74.74 1.593L54.726 1.526C50.993 1.288 47.337 2.668 44.692 5.313L2.95701 47.048C1.01401 48.991 1.01401 52.141 2.95701 54.084L34.413 85.539C36.356 87.482 39.506 87.482 41.449 85.539L83.184 43.804C85.829 41.159 87.208 37.504 86.97 33.771Z" stroke="#1C1F34" stroke-width="3" stroke-linecap="round" stroke-linejoin="round"/>
<path d="M51.581 8.587L79.91 36.916" stroke="#1C1F34" stroke-width="3" stroke-linecap="round" stroke-linejoin="round"/>
<path fill-rule="evenodd" clip-rule="evenodd" d="M42.102 72.03L38.923 68.851C34.23 72.416 29.269 71.376 26.477 69.119L29.269 64.545C31.319 66.237 34.289 66.713 37.022 63.979C38.953 62.049 39.161 60 37.853 58.692C36.845 57.683 35.329 57.653 33.518 58.812L30.191 60.951C26.269 63.445 22.259 63.416 19.408 60.564C16.259 57.416 16.379 52.664 19.052 48.98L15.873 45.801L18.903 42.772L22.171 46.04C26.21 43.247 30.072 44.138 32.477 45.712L29.864 50.405C28.645 49.544 26.15 48.593 23.714 51.029C21.813 52.929 21.873 55.069 23.091 56.287C24.012 57.208 25.438 57.327 27.131 56.227L30.458 54.148C35.032 51.237 38.954 51.772 41.626 54.445C44.36 57.178 44.924 61.664 41.924 65.793L45.132 69.001L42.102 72.03Z" fill="#AB651E"/>
<path d="M44.388 49.224L63.496 30.116" stroke="#1C1F34" stroke-width="3" stroke-linecap="round" stroke-linejoin="round"/>
<path d="M54.62 59.457L73.728 40.349" stroke="#1C1F34" stroke-width="3" stroke-linecap="round" stroke-linejoin="round"/>
<path d="M49.504 54.34L68.612 35.233" stroke="#1C1F34" stroke-width="3" stroke-linecap="round" stroke-linejoin="round"/>
<path d="M39.272 44.108L58.38 25" stroke="#1C1F34" stroke-width="3" stroke-linecap="round" stroke-linejoin="round"/>
<path d="M34.156 38.992L53.264 19.884" stroke="#1C1F34" stroke-width="3" stroke-linecap="round" stroke-linejoin="round"/>
<path d="M29.04 33.876L48.148 14.768" stroke="#1C1F34" stroke-width="3" stroke-linecap="round" stroke-linejoin="round"/>
</g>
<defs>
<clipPath id="clip0">
<rect width="94" height="90" fill="white"/>
</clipPath>
</defs>
</svg>
