<svg width="103" height="89" viewBox="0 0 103 89" fill="none" xmlns="http://www.w3.org/2000/svg">
<path fill-rule="evenodd" clip-rule="evenodd" d="M12.582 42.29L51.294 9.558L90.498 42.29V86.921H12.582V42.29Z" fill="#AB651E"/>
<path opacity="0.2" fill-rule="evenodd" clip-rule="evenodd" d="M73.55 29.797L52.286 12.351C52.285 12.35 52.284 12.35 52.284 12.35C52.124 12.219 51.944 12.124 51.753 12.068C51.729 12.061 51.704 12.06 51.68 12.054C51.609 12.036 51.537 12.019 51.464 12.012C51.443 12.01 51.422 12.013 51.401 12.012C51.324 12.008 51.247 12.005 51.17 12.013C51.168 12.013 51.165 12.014 51.163 12.014C50.953 12.036 50.747 12.105 50.557 12.216C50.488 12.256 50.42 12.297 50.357 12.348C50.356 12.349 50.355 12.35 50.353 12.351L13.832 42.323C13.862 43.619 13.878 44.917 13.884 46.22L51.319 15.498L71.178 31.791C71.712 30.871 72.549 30.127 73.55 29.797Z" fill="#3A427C"/>
<path fill-rule="evenodd" clip-rule="evenodd" d="M33.879 52.9L64.686 27.391L95.884 52.9V87.683H33.879V52.9Z" fill="#E8EBF7"/>
<path opacity="0.2" fill-rule="evenodd" clip-rule="evenodd" d="M65.757 31.231C65.755 31.231 65.755 31.23 65.754 31.23C65.611 31.111 65.448 31.026 65.275 30.975C65.252 30.968 65.231 30.967 65.209 30.962C65.144 30.946 65.079 30.931 65.013 30.924C64.993 30.923 64.975 30.925 64.956 30.924C64.886 30.921 64.816 30.918 64.748 30.925C64.745 30.925 64.743 30.926 64.74 30.926C64.55 30.946 64.364 31.008 64.191 31.109C64.13 31.145 64.067 31.182 64.011 31.229C64.01 31.23 64.008 31.23 64.007 31.231L33.843 55.979C33.871 57.152 33.886 58.327 33.892 59.506L64.882 34.08L96.275 59.837C96.284 58.66 96.3 57.483 96.32 56.306L65.757 31.231Z" fill="#3A427C"/>
<path fill-rule="evenodd" clip-rule="evenodd" d="M71.395 87.421H85.818V69.252H71.395V87.421Z" fill="#AB651E"/>
<path d="M5.278 87.5H101.247" stroke="#1C1F34" stroke-width="3" stroke-linecap="round" stroke-linejoin="round"/>
<path d="M12.5 43.5V87.5H93.5" stroke="#1C1F34" stroke-width="3" stroke-linecap="round" stroke-linejoin="round"/>
<path d="M34.5 53.5V87.5H96.505V53.5" stroke="#1C1F34" stroke-width="3" stroke-linecap="round" stroke-linejoin="round"/>
<path fill-rule="evenodd" clip-rule="evenodd" d="M99.274 48.52V56.756L64.882 28.54L30.49 56.756V48.52L64.882 20.303" fill="#3A427C"/>
<path d="M99.274 48.52V56.756L64.882 28.54L30.49 56.756V48.52L64.882 20.303" stroke="#1C1F34" stroke-width="3" stroke-linecap="round" stroke-linejoin="round"/>
<path fill-rule="evenodd" clip-rule="evenodd" d="M35.769 13.459V10.32H25.689V21.729" fill="#AEB8E0"/>
<path d="M35.5 13.526V10.5H25.5V21.5" stroke="#1C1F34" stroke-width="3" stroke-linecap="round" stroke-linejoin="round"/>
<path fill-rule="evenodd" clip-rule="evenodd" d="M71.5 87.5H85.5V69.5H71.5V87.5Z" stroke="#1C1F34" stroke-width="3" stroke-linecap="round" stroke-linejoin="round"/>
<path fill-rule="evenodd" clip-rule="evenodd" d="M71.5 65.41L78.5 60.5L85.5 65.41V68.5H71.5V65.41Z" stroke="#1C1F34" stroke-width="3" stroke-linecap="round" stroke-linejoin="round"/>
<path opacity="0.2" fill-rule="evenodd" clip-rule="evenodd" d="M61.892 76.367V77.246H43.108V76.747C42.102 77.152 40.977 77.232 40 76.849V78.622C40 79.384 40.696 80 41.554 80H63.446C64.304 80 65 79.384 65 78.622V76C64.068 76.432 62.943 76.554 61.892 76.367Z" fill="#3A427C"/>
<path fill-rule="evenodd" clip-rule="evenodd" d="M41 75H62V56H41V75Z" fill="white"/>
<path fill-rule="evenodd" clip-rule="evenodd" d="M41.5 76.5H63.5V56.5H41.5V76.5Z" stroke="#1C1F34" stroke-width="3" stroke-linecap="round" stroke-linejoin="round"/>
<path d="M52.5 56.985V75.997" stroke="#1C1F34" stroke-width="3" stroke-linecap="round" stroke-linejoin="round"/>
<path d="M41.68 66.5H63.178" stroke="#1C1F34" stroke-width="3" stroke-linecap="round" stroke-linejoin="round"/>
<path d="M10.36 44.184L5.401 49.143" stroke="#3A427C" stroke-width="1.462" stroke-linecap="round" stroke-linejoin="round"/>
<path fill-rule="evenodd" clip-rule="evenodd" d="M99.274 48.52L51.22 9.412L8.83701 44.184V36.273L51.22 1.5L79.295 24.535V32.261" fill="#3A427C"/>
<path d="M99.274 48.52L51.22 9.412L8.83701 44.184V36.273L51.22 1.5L79.295 24.535V32.261" stroke="#1C1F34" stroke-width="3" stroke-linecap="round" stroke-linejoin="round"/>
<path fill-rule="evenodd" clip-rule="evenodd" d="M12.516 7.143C6.432 7.143 1.5 62.694 1.5 68.778C1.5 74.862 6.432 79.794 12.516 79.794C18.6 79.794 23.532 74.862 23.532 68.778C23.532 62.694 18.6 7.143 12.516 7.143Z" fill="#E8EBF7"/>
<path fill-rule="evenodd" clip-rule="evenodd" d="M23.532 68.778C23.532 62.694 18.6 7.143 12.516 7.143C6.432 7.143 1.5 62.694 1.5 68.778C1.5 74.862 6.432 79.794 12.516 79.794C18.6 79.794 23.532 74.862 23.532 68.778Z" stroke="#1C1F34" stroke-width="3" stroke-linecap="round" stroke-linejoin="round"/>
<path d="M12.5 79.794V33.322" stroke="#1C1F34" stroke-width="3" stroke-linecap="round" stroke-linejoin="round"/>
<path d="M11.516 67.427L6.64301 62.554" stroke="#1C1F34" stroke-width="3" stroke-linecap="round" stroke-linejoin="round"/>
</svg>
