<svg width="102" height="85" viewBox="0 0 102 85" fill="none" xmlns="http://www.w3.org/2000/svg">
<path fill-rule="evenodd" clip-rule="evenodd" d="M8.5 84.051H94.449V8.66699H8.5V84.051Z" fill="#E8EBF7"/>
<path opacity="0.2" fill-rule="evenodd" clip-rule="evenodd" d="M94.854 10.167C94.82 11.098 94.791 12.024 94.785 12.938C94.782 13.37 94.81 13.775 94.852 14.167H8.32401V10.167H94.854Z" fill="#3A427C"/>
<path fill-rule="evenodd" clip-rule="evenodd" d="M8.5 83.5H93.5V8.5H8.5V83.5Z" stroke="#1C1F34" stroke-width="3" stroke-linecap="round" stroke-linejoin="round"/>
<path d="M2 83.5H100" stroke="#1C1F34" stroke-width="3" stroke-linecap="round" stroke-linejoin="round"/>
<path fill-rule="evenodd" clip-rule="evenodd" d="M22.675 84.051H80.275V32.906H22.675V84.051Z" fill="#AB651E"/>
<path fill-rule="evenodd" clip-rule="evenodd" d="M22.5 83.5H79.5V28.5H22.5V83.5Z" stroke="#1C1F34" stroke-width="3" stroke-linecap="round" stroke-linejoin="round"/>
<path fill-rule="evenodd" clip-rule="evenodd" d="M22.675 58.776H80.275V24.906H22.675V58.776Z" fill="#894D0F"/>
<path fill-rule="evenodd" clip-rule="evenodd" d="M22.675 46.776H80.275V23.906H22.675V46.776Z" fill="#E7EBF6"/>
<path fill-rule="evenodd" clip-rule="evenodd" d="M22.5 59.5H79.5V23.5H22.5V59.5Z" stroke="#1C1F34" stroke-width="3" stroke-linecap="round" stroke-linejoin="round"/>
<path d="M22.674 31.5H79.274" stroke="#1C1F34" stroke-width="3" stroke-linecap="round" stroke-linejoin="round"/>
<path d="M22.674 39.5H79.274" stroke="#1C1F34" stroke-width="3" stroke-linecap="round" stroke-linejoin="round"/>
<path d="M22.674 47.5H79.274" stroke="#1C1F34" stroke-width="3" stroke-linecap="round" stroke-linejoin="round"/>
<path fill-rule="evenodd" clip-rule="evenodd" d="M48 53.5H54H48Z" stroke="white" stroke-width="3" stroke-linecap="round" stroke-linejoin="round"/>
<path fill-rule="evenodd" clip-rule="evenodd" d="M4.5 8.666H98.449V1.5H4.5V8.666Z" fill="#3A427C"/>
<path fill-rule="evenodd" clip-rule="evenodd" d="M4.5 9.5H97.5V1.5H4.5V9.5Z" stroke="#1C1F34" stroke-width="3" stroke-linecap="round" stroke-linejoin="round"/>
</svg>
