<svg width="118" height="86" viewBox="0 0 118 86" fill="none" xmlns="http://www.w3.org/2000/svg">
<path fill-rule="evenodd" clip-rule="evenodd" d="M9.609 52.102L19.84 18.791L11.642 16.245C11.642 16.245 7.451 20.36 3.506 32.151C-0.439 43.943 1.528 48.821 1.528 48.821L9.609 52.102Z" fill="#AB651E"/>
<path fill-rule="evenodd" clip-rule="evenodd" d="M19.943 20.769L10.67 50.834L18.49 53.566L23.688 59.792C23.688 59.792 22.4 61.96 22.512 62.989C22.624 64.018 24.366 66.518 24.366 66.518L28.309 67.193L30.994 71.504L36.412 72.18L38.307 77.074L42.921 77.764L45.627 81.466L49.43 82.156L52.524 78.619L59.006 83.616C59.006 83.616 63.879 86.14 67.335 80.5C67.335 80.5 76.685 82.963 76.712 75.525C76.712 75.525 81.166 78.573 84.617 75.525C88.068 72.477 87.102 70.05 87.102 70.05C87.102 70.05 91.485 71.713 93.458 68.342C95.432 64.971 92.316 61.136 92.316 61.136L99.649 53.566L107.429 50.347L98.428 21.523L87.785 24.046C87.785 24.046 79.981 25.077 74.112 22.934C68.243 20.79 59.05 22.934 59.05 22.934C59.05 22.934 52.5 19.86 43.732 20.113C34.965 20.365 29.878 23.644 24.91 22.206L19.943 20.769Z" fill="#E7EBF6"/>
<path fill-rule="evenodd" clip-rule="evenodd" d="M23.005 61.137C23.005 61.137 21.205 64.712 24.366 66.519C27.527 68.326 29.238 67.194 29.238 67.194C29.238 67.194 28.706 69.889 30.994 71.505C33.282 73.122 36.952 71.505 36.952 71.505C36.952 71.505 36.218 75.992 38.307 77.075C40.396 78.158 43.354 77.075 43.354 77.075C43.354 77.075 43.184 79.74 45.627 81.467C48.07 83.193 51.267 80.795 51.267 80.795L56.749 72.181C56.749 72.181 57.262 69.205 54.784 67.446C52.306 65.688 49.429 67.194 49.429 67.194C49.429 67.194 49.429 64.649 47.43 63.21C45.432 61.771 41.275 63.45 41.275 63.45C41.275 63.45 41.116 60.558 38.718 59.206C36.319 57.854 34.637 59.206 34.637 59.206C34.637 59.206 34.721 55.696 32.003 54.257C29.285 52.819 26.408 56.096 26.408 56.096L23.005 61.137Z" fill="white"/>
<path fill-rule="evenodd" clip-rule="evenodd" d="M98.428 21.523C98.428 21.523 87.521 26.033 80.198 24.987C72.876 23.941 67.714 19.442 59.05 22.934C50.385 26.425 48.816 28.125 47.247 31.132C45.678 34.14 42.539 39.893 42.539 39.893C42.539 39.893 40.294 42.937 42.921 45.338C45.547 47.739 51.725 46.101 53.932 43.39C56.138 40.678 57.446 37.278 57.446 37.278L65.03 36.755C65.03 36.755 68.822 42.378 72.483 46.039C76.145 49.7 92.316 61.137 92.316 61.137L99.649 53.567L107.132 51.361L98.428 21.523Z" fill="white"/>
<path fill-rule="evenodd" clip-rule="evenodd" d="M108.193 52.834L116.262 49.901C116.262 49.901 117.328 45.333 114.098 32.212C110.867 19.09 106.16 16.977 106.16 16.977L98.428 19.378L108.193 52.834Z" fill="#AB651E"/>
<path opacity="0.2" fill-rule="evenodd" clip-rule="evenodd" d="M66.368 38.877C66.194 38.471 66.082 38.051 66.002 37.628C65.83 37.48 65.73 37.383 65.725 37.377C65.395 37.044 64.94 36.892 64.494 36.969L56.785 38.272C56.165 38.376 55.676 38.899 55.569 39.564C55.519 39.872 54.276 47.106 47.617 47.806C46.346 47.938 44.115 47.962 43.454 46.608C43.227 46.143 43.18 45.511 43.269 44.804C42.183 44.262 41.31 43.231 41.063 41.717C40.205 43.851 39.937 46.181 40.862 48.076C41.542 49.467 43.073 51.018 46.519 51.018C46.949 51.018 47.41 50.993 47.902 50.943C54.313 50.27 57.296 44.807 58.22 41.22L64.288 40.195C65.068 40.861 66.623 42.044 68.825 43.052C67.864 41.857 67.043 40.455 66.368 38.877Z" fill="#3A427C"/>
<path d="M98.428 21.544L88.431 24.321C88.431 24.321 81.499 26.106 74.784 23.568C67.717 20.898 62.04 20.918 54.428 24.821C45.101 29.604 47.182 33.38 44.098 37.043C41.014 40.705 39.857 47.066 47.76 46.295C55.663 45.524 57.012 37.428 57.012 37.428L64.722 36.218C64.722 36.218 68.79 40.044 75.489 40.57" stroke="#1C1F34" stroke-width="3" stroke-linecap="round" stroke-linejoin="round"/>
<path d="M64.722 36.218C74.185 50.41 91.322 61.137 91.322 61.137C91.322 61.137 96.193 64.103 93.458 68.343C90.722 72.583 85.756 69.848 85.756 69.848C85.756 69.848 88.124 73.13 84.158 75.866C80.191 78.601 75.635 75.182 75.635 75.182C75.635 75.182 77.593 78.191 74.447 80.242C71.301 82.294 66.335 80.242 66.335 80.242C66.335 80.242 67.745 82.841 63.779 84.209C59.812 85.576 56.53 81.61 56.53 81.61L53.931 79.011" stroke="#1C1F34" stroke-width="3" stroke-linecap="round" stroke-linejoin="round"/>
<path fill-rule="evenodd" clip-rule="evenodd" d="M47.534 63.028C45.595 61.754 42.989 62.293 41.715 64.233L37.102 71.256C35.828 73.196 36.367 75.801 38.307 77.075C40.246 78.349 42.851 77.809 44.125 75.87L48.739 68.846C50.013 66.907 49.473 64.302 47.534 63.028Z" stroke="#1C1F34" stroke-width="3" stroke-linecap="round" stroke-linejoin="round"/>
<path fill-rule="evenodd" clip-rule="evenodd" d="M54.854 67.42C52.915 66.146 50.31 66.685 49.036 68.625L44.422 75.648C43.148 77.588 43.687 80.193 45.627 81.467C47.566 82.741 50.171 82.201 51.445 80.262L56.059 73.238C57.333 71.299 56.793 68.694 54.854 67.42Z" stroke="#1C1F34" stroke-width="3" stroke-linecap="round" stroke-linejoin="round"/>
<path fill-rule="evenodd" clip-rule="evenodd" d="M39.076 59.251C37.179 58.005 34.63 58.532 33.384 60.43L29.815 65.813C28.569 67.71 29.096 70.259 30.994 71.505C32.891 72.751 35.439 72.223 36.685 70.326L40.255 64.943C41.501 63.046 40.973 60.497 39.076 59.251Z" stroke="#1C1F34" stroke-width="3" stroke-linecap="round" stroke-linejoin="round"/>
<path fill-rule="evenodd" clip-rule="evenodd" d="M32.251 54.242C30.354 52.996 27.805 53.523 26.559 55.421L23.187 60.827C21.941 62.724 22.468 65.272 24.366 66.518C26.263 67.765 28.811 67.237 30.057 65.34L33.43 59.934C34.676 58.037 34.148 55.488 32.251 54.242Z" stroke="#1C1F34" stroke-width="3" stroke-linecap="round" stroke-linejoin="round"/>
<path d="M23.688 59.792C23.688 59.792 21.523 54.78 17.994 53.334C12.318 51.008 10.037 50.709 10.037 50.709" stroke="#1C1F34" stroke-width="3" stroke-linecap="round" stroke-linejoin="round"/>
<path d="M60.161 22.509C60.161 22.509 48.231 18.719 39.557 20.671C30.884 22.623 32.313 24.55 19.943 20.768" stroke="#1C1F34" stroke-width="3" stroke-linecap="round" stroke-linejoin="round"/>
<path d="M91.322 61.137C91.322 61.137 96.278 59.346 100.304 52.514" stroke="#1C1F34" stroke-width="3" stroke-linecap="round" stroke-linejoin="round"/>
<path d="M85.756 69.847C85.756 69.847 76.367 63.738 65.021 52.026" stroke="#1C1F34" stroke-width="3" stroke-linecap="round" stroke-linejoin="round"/>
<path d="M76.635 75.181C76.635 75.181 65.35 66.996 58.395 59.206" stroke="#1C1F34" stroke-width="3" stroke-linecap="round" stroke-linejoin="round"/>
<path d="M67.335 80.242C67.335 80.242 61.499 75.836 56.745 70.809" stroke="#1C1F34" stroke-width="3" stroke-linecap="round" stroke-linejoin="round"/>
<path d="M99.115 54.299L106.157 51.361" stroke="#1C1F34" stroke-width="3" stroke-linecap="round" stroke-linejoin="round"/>
<path fill-rule="evenodd" clip-rule="evenodd" d="M108.193 52.834L97.962 19.523L106.16 16.977C106.16 16.977 117.039 28.466 116.262 49.901L108.193 52.834Z" stroke="#1C1F34" stroke-width="3" stroke-linecap="round" stroke-linejoin="round"/>
<path fill-rule="evenodd" clip-rule="evenodd" d="M9.609 52.102L19.84 18.791L11.642 16.245C11.642 16.245 0.763 27.735 1.54 49.169L9.609 52.102Z" stroke="#1C1F34" stroke-width="3" stroke-linecap="round" stroke-linejoin="round"/>
<path d="M53.686 7.233L56.013 13.623" stroke="#1C1F34" stroke-width="3" stroke-linecap="round" stroke-linejoin="round"/>
<path d="M62.04 14.529L67.335 1.5" stroke="#1C1F34" stroke-width="3" stroke-linecap="round" stroke-linejoin="round"/>
</svg>
