<svg width="100" height="91" viewBox="0 0 100 91" fill="none" xmlns="http://www.w3.org/2000/svg">
<path fill-rule="evenodd" clip-rule="evenodd" d="M93.378 18H8.498C6.014 18 4 20.014 4 22.498V79.378C4 81.862 6.014 83.876 8.498 83.876H93.378C95.862 83.876 97.876 81.862 97.876 79.378V22.498C97.876 20.014 95.862 18 93.378 18Z" fill="white"/>
<path fill-rule="evenodd" clip-rule="evenodd" d="M70.07 26.849C72.916 43.288 72.916 59.727 70.07 76.165C51.092 78.632 32.112 78.632 13.134 76.165C10.289 59.727 10.289 43.288 13.134 26.849C32.112 24.384 51.092 24.384 70.07 26.849Z" fill="#AB651E"/>
<path fill-rule="evenodd" clip-rule="evenodd" d="M70.07 26.849C51.092 24.384 32.112 24.384 13.134 26.849C10.289 43.288 10.289 59.727 13.134 76.165C32.112 78.632 51.092 78.632 70.07 76.165C72.916 59.727 72.916 43.288 70.07 26.849Z" stroke="#1C1F34" stroke-width="3" stroke-linecap="round" stroke-linejoin="round"/>
<path fill-rule="evenodd" clip-rule="evenodd" d="M93.378 18H8.498C6.014 18 4 20.014 4 22.498V79.378C4 81.862 6.014 83.876 8.498 83.876H93.378C95.862 83.876 97.876 81.862 97.876 79.378V22.498C97.876 20.014 95.862 18 93.378 18Z" stroke="#1C1F34" stroke-width="3" stroke-linecap="round" stroke-linejoin="round"/>
<path fill-rule="evenodd" clip-rule="evenodd" d="M16.596 89.252H9L8 84H17.596L16.596 89.252Z" fill="#D6D7E0"/>
<path fill-rule="evenodd" clip-rule="evenodd" d="M16.596 89.252H9L8 84H17.596L16.596 89.252Z" stroke="#1C1F34" stroke-width="3" stroke-linecap="round" stroke-linejoin="round"/>
<path d="M2 89.5H98" stroke="#1C1F34" stroke-width="3" stroke-linecap="round" stroke-linejoin="round"/>
<path fill-rule="evenodd" clip-rule="evenodd" d="M93.596 89.252H86L85 84H94.596L93.596 89.252Z" fill="#D6D7E0"/>
<path fill-rule="evenodd" clip-rule="evenodd" d="M93.596 89.252H86L85 84H94.596L93.596 89.252Z" stroke="#1C1F34" stroke-width="3" stroke-linecap="round" stroke-linejoin="round"/>
<path fill-rule="evenodd" clip-rule="evenodd" d="M80 76.286H89.688V60H80V76.286Z" stroke="#1C1F34" stroke-width="1.5" stroke-linecap="round" stroke-linejoin="round"/>
<path fill-rule="evenodd" clip-rule="evenodd" d="M89.688 46.844C89.688 44.169 87.519 42 84.844 42C82.169 42 80 44.169 80 46.844C80 49.519 82.169 51.688 84.844 51.688C87.519 51.688 89.688 49.519 89.688 46.844Z" stroke="#1C1F34" stroke-width="1.5" stroke-linecap="round" stroke-linejoin="round"/>
<path fill-rule="evenodd" clip-rule="evenodd" d="M89.688 31.844C89.688 29.169 87.519 27 84.844 27C82.169 27 80 29.169 80 31.844C80 34.519 82.169 36.688 84.844 36.688C87.519 36.688 89.688 34.519 89.688 31.844Z" stroke="#1C1F34" stroke-width="1.5" stroke-linecap="round" stroke-linejoin="round"/>
<path d="M47.81 26V31.919L44 37.855L45.905 42.045V47.804L51.017 51.733L54.161 42.045L60.358 40.045" stroke="#1C1F34" stroke-width="1.5" stroke-linecap="round" stroke-linejoin="round"/>
<path d="M71.714 45L63.246 46.904L58.801 51.748H51L54.567 59.243L62.4 62.214L60.341 68.953L63.458 76.095" stroke="#1C1F34" stroke-width="1.5" stroke-linecap="round" stroke-linejoin="round"/>
<path fill-rule="evenodd" clip-rule="evenodd" d="M55.821 59.495L60.055 51L51 51.546L55.821 59.495Z" fill="#1C1F34"/>
<path d="M27.959 76.143L26.959 70.805L25 70" stroke="#1C1F34" stroke-width="1.5" stroke-linecap="round" stroke-linejoin="round"/>
<path d="M60.504 27L59 29.43" stroke="#1C1F34" stroke-width="1.5" stroke-linecap="round" stroke-linejoin="round"/>
<path d="M54 13.843L64.819 2" stroke="#1C1F34" stroke-width="3" stroke-linecap="round" stroke-linejoin="round"/>
<path fill-rule="evenodd" clip-rule="evenodd" d="M66.617 2.309C66.617 1.034 65.583 0 64.308 0C63.033 0 62 1.034 62 2.309C62 3.584 63.033 4.618 64.308 4.618C65.583 4.618 66.617 3.584 66.617 2.309Z" fill="#1C1F34"/>
<path d="M48.819 13.843L38 2" stroke="#1C1F34" stroke-width="3" stroke-linecap="round" stroke-linejoin="round"/>
<path fill-rule="evenodd" clip-rule="evenodd" d="M36 2.309C36 1.034 37.034 0 38.309 0C39.584 0 40.617 1.034 40.617 2.309C40.617 3.584 39.584 4.618 38.309 4.618C37.034 4.618 36 3.584 36 2.309Z" fill="#1C1F34"/>
<path fill-rule="evenodd" clip-rule="evenodd" d="M56.814 16.407C56.814 14.525 54.393 13 51.407 13C48.421 13 46 14.525 46 16.407" fill="white"/>
<path d="M56.814 17.407C56.814 14.973 54.393 13 51.407 13C48.421 13 46 14.973 46 17.407" stroke="#1C1F34" stroke-width="3" stroke-linecap="round" stroke-linejoin="round"/>
</svg>
