<svg width="933" height="404" viewBox="0 0 933 404" fill="none" xmlns="http://www.w3.org/2000/svg">
<mask id="mask0" mask-type="alpha" maskUnits="userSpaceOnUse" x="0" y="0" width="933" height="404">
<path d="M0 0H932.308V404H0V0Z" fill="white"/>
</mask>
<g mask="url(#mask0)">
<path d="M275.031 46.7439V48.0383C275.04 48.8945 275.366 49.7149 275.941 50.3271C276.526 50.9316 277.315 51.2719 278.137 51.2765C278.942 51.2392 279.776 50.9642 280.336 50.3287C280.907 49.7133 281.234 48.8945 281.246 48.0383V46.7439C281.239 45.8937 280.914 45.0768 280.336 44.4536C280.05 44.1576 279.709 43.9215 279.332 43.759C278.954 43.5966 278.548 43.511 278.137 43.5073C277.335 43.5446 276.501 43.8196 275.941 44.4551C275.365 45.0794 275.041 45.8947 275.031 46.7439ZM62.1539 46.7439V48.0383C62.1632 48.8945 62.4895 49.7149 63.0644 50.3271C63.6487 50.9316 64.438 51.2719 65.26 51.2765C66.0649 51.2392 66.8993 50.9642 67.4587 50.3287C68.0305 49.7133 68.3568 48.8945 68.3693 48.0383V46.7439C68.3619 45.8937 68.0371 45.0768 67.4587 44.4536C67.1735 44.1576 66.8322 43.9215 66.4546 43.759C66.0771 43.5966 65.671 43.511 65.26 43.5073C64.4582 43.5446 63.6238 43.8196 63.0644 44.4551C62.4889 45.079 62.1646 45.8937 62.1539 46.7424V46.7439ZM96.3385 116.667V117.961C96.3478 118.818 96.6741 119.638 97.249 120.25C97.8333 120.855 98.6226 121.195 99.4446 121.2C100.25 121.162 101.084 120.887 101.643 120.252C102.215 119.636 102.541 118.818 102.554 117.961V116.667C102.546 115.817 102.222 115 101.643 114.377C101.358 114.081 101.017 113.845 100.639 113.682C100.262 113.52 99.8556 113.434 99.4446 113.43C98.6428 113.468 97.8084 113.743 97.249 114.378C96.6735 115.002 96.3492 115.817 96.3385 116.665V116.667ZM10.877 115.113V116.408C10.8863 117.264 11.2126 118.084 11.7875 118.696C12.3718 119.301 13.1611 119.641 13.9831 119.646C14.788 119.608 15.6224 119.333 16.1818 118.698C16.7536 118.083 17.0799 117.264 17.0923 116.408V115.113C17.0849 114.263 16.7602 113.446 16.1818 112.823C15.8966 112.527 15.5552 112.291 15.1777 112.128C14.8002 111.966 14.3941 111.88 13.9831 111.877C13.1813 111.914 12.3469 112.189 11.7875 112.824C11.212 113.448 10.8877 114.263 10.877 115.112V115.113ZM18.6462 32.7593V34.0537C18.6555 34.9099 18.9818 35.7303 19.5567 36.3425C20.141 36.9469 20.9303 37.2872 21.7523 37.2919C22.5572 37.2546 23.3916 36.9796 23.951 36.3441C24.5228 35.7287 24.8491 34.9099 24.8616 34.0537V32.7593C24.8542 31.9091 24.5294 31.0922 23.951 30.469C23.6658 30.173 23.3245 29.9369 22.9469 29.7744C22.5694 29.612 22.1633 29.5264 21.7523 29.5227C20.9505 29.56 20.1161 29.835 19.5567 30.4705C18.9812 31.0944 18.6569 31.9091 18.6462 32.7578V32.7593ZM756.723 51.4055V52.6998C756.732 53.556 757.059 54.3764 757.634 54.9887C758.218 55.5931 759.007 55.9334 759.829 55.9381C760.634 55.9008 761.469 55.6257 762.028 54.9902C762.6 54.3749 762.926 53.556 762.938 52.6998V51.4055C762.931 50.5552 762.606 49.7384 762.028 49.1151C761.743 48.8192 761.401 48.5831 761.024 48.4206C760.646 48.2581 760.24 48.1725 759.829 48.1688C759.027 48.2061 758.193 48.4811 757.634 49.1167C757.058 49.7409 756.733 50.5563 756.723 51.4055ZM313.877 147.615C318.016 147.615 318.023 141.4 313.877 141.4C309.733 141.4 309.733 147.615 313.877 147.615ZM169.369 169.369C173.509 169.369 173.515 163.153 169.369 163.153C165.225 163.153 165.225 169.369 169.369 169.369ZM371.239 27.9688H369.946C369.096 27.9766 368.279 28.3006 367.656 28.8778C367.36 29.163 367.124 29.5041 366.961 29.8813C366.798 30.2584 366.712 30.6642 366.708 31.075C366.747 31.8799 367.02 32.7143 367.656 33.2737C368.271 33.8455 369.09 34.1718 369.946 34.1842H371.239C372.089 34.1774 372.906 33.8526 373.529 33.2737C374.13 32.6879 374.472 31.8985 374.477 31.075C374.438 30.2732 374.165 29.4388 373.529 28.8778C372.904 28.3027 372.088 27.9789 371.239 27.9688ZM158.362 27.9688H157.069C156.219 27.9766 155.403 28.3006 154.779 28.8778C154.483 29.163 154.247 29.5041 154.084 29.8813C153.921 30.2584 153.835 30.6642 153.831 31.075C153.87 31.8799 154.143 32.7143 154.779 33.2737C155.394 33.8455 156.213 34.1718 157.069 34.1842H158.362C159.212 34.1774 160.029 33.8526 160.652 33.2737C161.254 32.6879 161.595 31.8985 161.6 31.075C161.561 30.2732 161.288 29.4388 160.652 28.8778C160.027 28.3027 159.211 27.9789 158.362 27.9688ZM852.931 32.6304H851.638C850.788 32.6381 849.972 32.9622 849.348 33.5394C849.052 33.8245 848.816 34.1656 848.653 34.5428C848.491 34.92 848.405 35.3257 848.4 35.7365C848.439 36.5414 848.712 37.3758 849.348 37.9352C849.963 38.507 850.782 38.8333 851.638 38.8457H852.931C853.781 38.8389 854.599 38.5141 855.221 37.9352C855.823 37.3494 856.165 36.56 856.169 35.7365C856.13 34.9347 855.857 34.1003 855.221 33.5394C854.596 32.9642 853.781 32.6405 852.931 32.6304ZM394.677 104.107C398.816 104.107 398.823 97.8919 394.677 97.8919C390.533 97.8919 390.533 104.107 394.677 104.107ZM181.8 104.107C185.939 104.107 185.946 97.8919 181.8 97.8919C177.656 97.8919 177.656 104.107 181.8 104.107ZM255.519 195.178L254.225 196.473C253.628 197.086 253.289 197.904 253.277 198.76C253.283 199.618 253.623 200.438 254.225 201.049C254.845 201.616 255.653 202.035 256.515 201.996C257.371 201.983 258.189 201.644 258.804 201.049L260.098 199.756C260.696 199.143 261.035 198.323 261.046 197.467C261.04 196.61 260.7 195.789 260.098 195.178C259.481 194.614 258.67 194.195 257.808 194.233C256.953 194.247 256.135 194.585 255.519 195.178ZM111.011 216.932L109.717 218.226C109.12 218.84 108.781 219.658 108.769 220.514C108.775 221.371 109.116 222.192 109.717 222.802C110.337 223.37 111.145 223.789 112.007 223.75C112.863 223.737 113.682 223.398 114.296 222.802L115.591 221.51C116.188 220.896 116.528 220.077 116.538 219.221C116.532 218.364 116.192 217.543 115.591 216.932C114.974 216.368 114.163 215.948 113.3 215.987C112.445 216.001 111.627 216.339 111.011 216.932ZM496.365 42.9044L495.071 44.1972C494.473 44.8105 494.134 45.6298 494.123 46.486C494.129 47.3422 494.47 48.1642 495.071 48.7748C495.691 49.3389 496.499 49.7584 497.361 49.7196C498.217 49.7069 499.035 49.3691 499.65 48.7748L500.945 47.4805C501.541 46.8683 501.88 46.0494 501.892 45.1932C501.887 44.3359 501.547 43.5147 500.945 42.9044C500.328 42.3372 499.516 41.9177 498.654 41.9565C497.799 41.9705 496.981 42.3093 496.365 42.9044ZM546.954 10.8765C551.093 10.8765 551.1 4.66113 546.954 4.66113C542.81 4.66113 542.81 10.8765 546.954 10.8765ZM604.446 60.5996C608.586 60.5996 608.592 54.3842 604.446 54.3842C600.302 54.3842 600.302 60.5996 604.446 60.5996ZM665.048 20.1996C669.186 20.1996 669.193 13.9842 665.048 13.9842C660.902 13.9842 660.902 20.1996 665.048 20.1996ZM674.371 122.753C678.509 122.753 678.516 116.538 674.371 116.538C670.225 116.538 670.225 122.753 674.371 122.753ZM907.448 122.753C911.586 122.753 911.593 116.538 907.448 116.538C903.302 116.538 903.302 122.753 907.448 122.753ZM891.909 219.092C896.047 219.092 896.055 212.877 891.909 212.877C887.764 212.877 887.764 219.092 891.909 219.092ZM806.448 119.646C810.586 119.646 810.593 113.43 806.448 113.43C802.302 113.43 802.302 119.646 806.448 119.646ZM661.938 189.569C666.078 189.569 666.084 183.353 661.938 183.353C657.794 183.353 657.794 189.569 661.938 189.569ZM794.015 186.461C798.155 186.461 798.161 180.246 794.015 180.246C789.871 180.246 789.871 186.461 794.015 186.461ZM584.246 107.345V108.638C584.257 109.494 584.583 110.315 585.157 110.929C585.743 111.53 586.53 111.87 587.354 111.877C588.159 111.838 588.99 111.564 589.551 110.929C590.123 110.313 590.449 109.494 590.462 108.638V107.345C590.454 106.495 590.13 105.678 589.551 105.055C589.266 104.76 588.925 104.524 588.547 104.361C588.17 104.198 587.765 104.112 587.354 104.107C586.551 104.146 585.718 104.42 585.157 105.055C584.58 105.68 584.256 106.496 584.246 107.345Z" fill="#FFBC4D"/>
<path d="M326.308 90.2505V91.5448C326.316 92.395 326.641 93.2115 327.218 93.8352C327.804 94.4397 328.592 94.78 329.415 94.7846C330.219 94.7473 331.052 94.4723 331.613 93.8368C332.184 93.2199 332.511 92.401 332.523 91.5448V90.2505C332.515 89.4005 332.19 88.584 331.613 87.9601C331.327 87.6649 330.986 87.4293 330.609 87.2671C330.232 87.1049 329.826 87.0193 329.415 87.0154C328.612 87.0527 327.779 87.3277 327.218 87.9632C326.642 88.5879 326.318 89.4039 326.308 90.2536V90.2505ZM113.431 90.2505V91.5448C113.439 92.395 113.764 93.2115 114.341 93.8352C114.927 94.4397 115.715 94.78 116.539 94.7846C117.342 94.7473 118.175 94.4723 118.736 93.8368C119.308 93.2199 119.634 92.401 119.646 91.5448V90.2505C119.638 89.4005 119.313 88.584 118.736 87.9601C118.45 87.6649 118.109 87.4293 117.732 87.2671C117.355 87.1049 116.949 87.0193 116.539 87.0154C115.735 87.0527 114.902 87.3277 114.341 87.9632C113.766 88.5875 113.441 89.4028 113.431 90.252V90.2489V90.2505ZM43.5078 108.897V110.191C43.516 111.041 43.8406 111.858 44.4184 112.481C45.0042 113.086 45.792 113.426 46.6155 113.431C47.4188 113.393 48.2517 113.118 48.8126 112.483C49.3845 111.866 49.7108 111.047 49.7232 110.191V108.897C49.7146 108.047 49.39 107.23 48.8126 106.606C48.5273 106.311 48.1862 106.075 47.809 105.913C47.4318 105.751 47.0261 105.665 46.6155 105.662C45.8122 105.699 44.9793 105.974 44.4184 106.609C43.8426 107.234 43.5183 108.049 43.5078 108.898V108.895V108.897ZM55.9386 172.604V173.899C55.9467 174.749 56.2714 175.565 56.8491 176.189C57.4349 176.794 58.2227 177.134 59.0463 177.138C59.8496 177.101 60.6825 176.826 61.2434 176.191C61.8152 175.574 62.1415 174.755 62.154 173.899V172.604C62.1454 171.754 61.8208 170.938 61.2434 170.314C60.9581 170.019 60.6169 169.783 60.2397 169.621C59.8625 169.459 59.4568 169.373 59.0463 169.369C58.2429 169.407 57.4101 169.682 56.8491 170.317C56.273 170.942 55.9487 171.758 55.9386 172.607V172.604ZM310.769 20.2C314.909 20.2 314.915 13.9846 310.769 13.9846C306.625 13.9846 306.625 20.2 310.769 20.2ZM97.8924 20.2C102.032 20.2 102.038 13.9846 97.8924 13.9846C93.7483 13.9846 93.7483 20.2 97.8924 20.2ZM792.462 24.8615C796.601 24.8615 796.607 18.6462 792.462 18.6462C788.318 18.6462 788.318 24.8615 792.462 24.8615ZM434.389 70.526L435.683 69.2332C436.28 68.6203 436.62 67.8016 436.631 66.9459C436.624 66.0893 436.284 65.269 435.683 64.6586C435.066 64.0915 434.255 63.672 433.393 63.7108C432.538 63.7263 431.719 64.0635 431.104 64.6586L429.809 65.9514C429.212 66.5643 428.873 67.383 428.862 68.2387C428.868 69.0949 429.208 69.9169 429.809 70.526C430.429 71.0931 431.238 71.5127 432.1 71.4738C432.955 71.4593 433.773 71.1205 434.389 70.526ZM221.512 70.526L222.806 69.2332C223.403 68.6203 223.743 67.8016 223.754 66.9459C223.747 66.0893 223.407 65.269 222.806 64.6586C222.189 64.0915 221.378 63.672 220.516 63.7108C219.661 63.7263 218.842 64.0635 218.227 64.6586L216.933 65.9514C216.335 66.5643 215.996 67.383 215.985 68.2387C215.991 69.0949 216.331 69.9169 216.933 70.526C217.553 71.0931 218.361 71.5127 219.223 71.4738C220.078 71.4593 220.896 71.1205 221.512 70.526ZM916.081 75.1875L917.375 73.8947C917.973 73.2818 918.312 72.4631 918.323 71.6074C918.316 70.7508 917.976 69.9305 917.375 69.3202C916.758 68.753 915.947 68.3335 915.085 68.3723C914.23 68.3879 913.411 68.7251 912.796 69.3202L911.502 70.613C910.905 71.2259 910.565 72.0446 910.554 72.9002C910.56 73.7564 910.9 74.5784 911.502 75.1875C912.122 75.7547 912.93 76.1742 913.792 76.1354C914.648 76.1208 915.466 75.782 916.081 75.1875ZM897.435 98.4952L898.729 97.2024C899.326 96.5895 899.666 95.7708 899.677 94.9151C899.67 94.0585 899.33 93.2382 898.729 92.6279C898.112 92.0607 897.301 91.6412 896.439 91.68C895.584 91.6956 894.765 92.0328 894.15 92.6279L892.856 93.9207C892.258 94.5336 891.919 95.3523 891.908 96.2079C891.914 97.0641 892.254 97.8861 892.856 98.4952C893.476 99.0624 894.284 99.4819 895.146 99.443C896.001 99.4285 896.82 99.0897 897.435 98.4952ZM344.856 182.091C344.44 180.024 342.32 178.702 340.303 178.692C338.286 178.683 336.175 180.022 335.74 182.08C335.516 182.978 335.641 183.927 336.089 184.737C336.551 185.512 337.294 186.079 338.164 186.325C339.902 186.716 342.023 185.803 342.424 183.915C342.434 183.854 342.449 183.795 342.471 183.738L342.12 184.561C342.154 184.481 342.195 184.405 342.244 184.333L341.703 185.021C341.757 184.956 341.816 184.896 341.88 184.841L341.189 185.38C341.279 185.318 341.375 185.262 341.475 185.217L340.647 185.567C340.76 185.526 340.877 185.497 340.995 185.476L340.073 185.601C340.226 185.582 340.381 185.582 340.535 185.601L339.612 185.476C339.73 185.497 339.845 185.528 339.958 185.57L339.132 185.222C339.237 185.268 339.338 185.326 339.43 185.392L338.739 184.853C338.804 184.909 338.863 184.97 338.916 185.035L338.373 184.347C338.408 184.392 338.437 184.441 338.462 184.493L338.114 183.669C338.147 183.752 338.173 183.838 338.19 183.926C338.355 184.738 339.082 185.581 339.783 185.992C340.591 186.457 341.549 186.583 342.449 186.342C344.339 185.734 345.251 183.996 344.868 182.097L344.856 182.091ZM200.348 203.844C199.932 201.778 197.812 200.455 195.796 200.446C193.779 200.437 191.667 201.776 191.232 203.834C191.009 204.732 191.134 205.681 191.582 206.491C192.043 207.266 192.786 207.833 193.656 208.079C195.395 208.47 197.516 207.557 197.917 205.669C197.926 205.608 197.942 205.549 197.963 205.491L197.612 206.315C197.646 206.235 197.688 206.159 197.736 206.087L197.196 206.775C197.249 206.71 197.309 206.65 197.373 206.595L196.681 207.134C196.771 207.072 196.868 207.016 196.967 206.971L196.139 207.32C196.252 207.28 196.369 207.25 196.487 207.23L195.566 207.355C195.718 207.336 195.873 207.336 196.027 207.355L195.104 207.23C195.222 207.25 195.337 207.282 195.451 207.323L194.624 206.975C194.73 207.022 194.831 207.08 194.922 207.146L194.231 206.607C194.296 206.663 194.355 206.724 194.408 206.789L193.866 206.101C193.9 206.146 193.93 206.195 193.954 206.247L193.606 205.423C193.64 205.506 193.665 205.592 193.682 205.68C193.847 206.492 194.574 207.334 195.275 207.746C196.083 208.211 197.042 208.337 197.941 208.096C199.831 207.488 200.743 205.749 200.361 203.851L200.348 203.844ZM422.646 10.8769C426.786 10.8769 426.792 4.66154 422.646 4.66154C418.502 4.66154 418.502 10.8769 422.646 10.8769ZM209.769 10.8769C213.909 10.8769 213.915 4.66154 209.769 4.66154C205.625 4.66154 205.625 10.8769 209.769 10.8769ZM904.339 15.5385C908.478 15.5385 908.484 9.32308 904.339 9.32308C900.194 9.32308 900.194 15.5385 904.339 15.5385ZM477.031 9.4536V10.7464C477.042 11.6026 477.368 12.423 477.941 13.0368C478.527 13.6381 479.315 13.9784 480.139 13.9846C480.943 13.9458 481.775 13.6723 482.336 13.0368C482.908 12.4214 483.234 11.6026 483.246 10.7464V9.4536C483.239 8.60324 482.915 7.78625 482.336 7.16323C482.051 6.86741 481.71 6.63125 481.332 6.46852C480.955 6.3058 480.549 6.21975 480.139 6.21538C479.335 6.25423 478.502 6.52771 477.941 7.16323C477.365 7.78779 477.041 8.6038 477.031 9.4536ZM593.569 10.1V13.2077C593.569 15.2386 595 17.1871 596.677 17.0892C598.354 16.9898 599.785 15.38 599.785 13.2061V10.1016C599.785 8.06602 598.354 6.1206 596.677 6.21849C595 6.31794 593.569 7.92772 593.569 10.1016V10.1ZM553.858 59.9971L552.563 61.2899C551.966 61.903 551.627 62.7216 551.616 63.5772C551.622 64.4333 551.962 65.2553 552.563 65.8644C553.18 66.4316 553.991 66.8511 554.854 66.8123C555.709 66.7982 556.528 66.4594 557.143 65.8644L558.437 64.5716C559.034 63.9594 559.372 63.1405 559.385 62.2844C559.379 61.4276 559.039 60.6069 558.437 59.9971C557.82 59.43 557.009 59.0104 556.146 59.0493C555.291 59.063 554.473 59.4019 553.858 59.9971ZM626.888 117.489L625.594 118.782C624.997 119.395 624.658 120.214 624.646 121.069C624.652 121.926 624.993 122.748 625.594 123.357C626.211 123.924 627.022 124.343 627.885 124.305C628.74 124.291 629.559 123.952 630.173 123.357L631.468 122.064C632.064 121.452 632.403 120.633 632.415 119.777C632.41 118.92 632.07 118.099 631.468 117.489C630.851 116.922 630.04 116.503 629.177 116.542C628.322 116.555 627.503 116.894 626.888 117.489ZM859.965 117.489L858.671 118.782C858.074 119.395 857.735 120.214 857.723 121.069C857.729 121.926 858.07 122.748 858.671 123.357C859.288 123.924 860.099 124.343 860.961 124.305C861.817 124.291 862.636 123.952 863.25 123.357L864.545 122.064C865.141 121.452 865.48 120.633 865.492 119.777C865.487 118.92 865.146 118.099 864.545 117.489C863.928 116.922 863.117 116.503 862.254 116.542C861.399 116.555 860.58 116.894 859.965 117.489ZM844.427 213.828L843.133 215.121C842.536 215.734 842.196 216.552 842.185 217.408C842.191 218.264 842.531 219.086 843.133 219.695C843.749 220.262 844.561 220.682 845.423 220.643C846.279 220.63 847.097 220.291 847.712 219.695L849.006 218.402C849.603 217.79 849.942 216.971 849.954 216.115C849.948 215.258 849.608 214.438 849.006 213.828C848.389 213.261 847.578 212.841 846.716 212.88C845.86 212.894 845.042 213.233 844.427 213.828ZM758.965 114.382L757.671 115.675C757.074 116.288 756.735 117.106 756.723 117.962C756.729 118.818 757.07 119.64 757.671 120.249C758.288 120.816 759.099 121.236 759.961 121.197C760.817 121.183 761.636 120.844 762.25 120.249L763.545 118.956C764.141 118.344 764.48 117.525 764.492 116.669C764.487 115.812 764.146 114.992 763.545 114.382C762.928 113.815 762.117 113.395 761.254 113.434C760.399 113.448 759.58 113.787 758.965 114.382ZM699.231 12.4308C703.37 12.4308 703.377 6.21538 699.231 6.21538C695.087 6.21538 695.087 12.4308 699.231 12.4308ZM653.305 66.2125L652.011 67.5053C651.71 67.8054 651.471 68.1619 651.309 68.5544C651.146 68.9468 651.062 69.3676 651.062 69.7925C651.062 70.2175 651.146 70.6383 651.309 71.0307C651.471 71.4232 651.71 71.7797 652.011 72.0798C652.628 72.647 653.439 73.0665 654.301 73.0277C655.157 73.012 655.974 72.6734 656.59 72.0798L657.885 70.787C658.481 70.1748 658.82 69.3559 658.831 68.4997C658.824 67.6431 658.484 66.8227 657.883 66.2125C657.266 65.6453 656.457 65.2258 655.594 65.2646C654.74 65.2786 653.921 65.6174 653.305 66.2125ZM260.916 0H259.623C258.773 0.0075571 257.956 0.332277 257.333 0.910554C257.036 1.19539 256.8 1.53641 256.637 1.91367C256.475 2.29093 256.389 2.69685 256.385 3.10769C256.422 3.91103 256.697 4.74389 257.333 5.30483C257.948 5.8782 258.767 6.20295 259.623 6.21538H260.916C261.766 6.20738 262.583 5.88272 263.206 5.30483C263.809 4.71903 264.149 3.93123 264.154 3.10769C264.117 2.30435 263.842 1.47149 263.206 0.910554C262.582 0.333943 261.766 0.00949013 260.916 0V0ZM48.0388 0H46.746C45.8958 0.0075571 45.079 0.332277 44.4557 0.910554C44.1596 1.19539 43.9232 1.53641 43.7605 1.91367C43.5977 2.29093 43.5118 2.69685 43.5078 3.10769C43.5451 3.91103 43.8201 4.74389 44.4557 5.30483C45.071 5.8782 45.8899 6.20295 46.746 6.21538H48.0388C48.889 6.20738 49.7056 5.88272 50.3292 5.30483C50.9321 4.71903 51.2724 3.93123 51.277 3.10769C51.2398 2.30435 50.9647 1.47149 50.3292 0.910554C49.7048 0.333943 48.8887 0.00949013 48.0388 0V0ZM742.608 4.66154H741.315C740.465 4.6691 739.648 4.99381 739.025 5.57209C738.729 5.85693 738.492 6.19795 738.33 6.57521C738.167 6.95246 738.081 7.35839 738.077 7.76923C738.114 8.57257 738.389 9.40543 739.025 9.96637C739.64 10.5397 740.459 10.8645 741.315 10.8769H742.608C743.458 10.8689 744.275 10.5443 744.898 9.96637C745.501 9.38057 745.842 8.59277 745.846 7.76923C745.809 6.96589 745.534 6.13303 744.898 5.57209C744.274 4.99548 743.458 4.67103 742.608 4.66154ZM372.058 5.60938L370.763 6.90374C370.166 7.51626 369.826 8.33519 369.815 9.191C369.82 10.0487 370.16 10.8692 370.763 11.4798C371.38 12.047 372.191 12.4665 373.054 12.4277C373.909 12.4131 374.727 12.0743 375.343 11.4798L376.637 10.187C377.236 9.57464 377.575 8.75474 377.585 7.8982C377.579 7.0409 377.239 6.21966 376.637 5.60938C376.02 5.04534 375.209 4.6258 374.347 4.66465C373.491 4.6782 372.673 5.01586 372.058 5.60938ZM159.181 5.60938L157.886 6.90374C157.289 7.51626 156.949 8.33519 156.939 9.191C156.943 10.0487 157.284 10.8692 157.886 11.4798C158.503 12.047 159.314 12.4665 160.177 12.4277C161.032 12.4131 161.85 12.0743 162.466 11.4798L163.76 10.187C164.359 9.57464 164.698 8.75474 164.708 7.8982C164.702 7.0409 164.362 6.21966 163.76 5.60938C163.143 5.04534 162.332 4.6258 161.47 4.66465C160.615 4.6782 159.796 5.01586 159.181 5.60938ZM853.75 10.2709L852.456 11.5653C851.858 12.1778 851.518 12.9967 851.508 13.8525C851.512 14.7103 851.853 15.5307 852.456 16.1414C853.073 16.7085 853.884 17.128 854.746 17.0892C855.601 17.0747 856.42 16.7359 857.035 16.1414L858.329 14.8486C858.928 14.2362 859.268 13.4163 859.277 12.5597C859.271 11.7024 858.931 10.8812 858.329 10.2709C857.712 9.70688 856.901 9.28734 856.039 9.32618C855.184 9.33974 854.366 9.6774 853.75 10.2709ZM627.754 17.2228V18.5156C627.763 19.3734 628.09 20.1938 628.664 20.806C629.25 21.4073 630.038 21.7476 630.862 21.7538C631.665 21.715 632.498 21.4415 633.059 20.806C633.631 20.1907 633.955 19.3718 633.969 18.5156V17.2228C633.961 16.3728 633.636 15.5563 633.059 14.9325C632.773 14.6371 632.432 14.4013 632.055 14.2386C631.678 14.0759 631.272 13.9896 630.862 13.9846C630.057 14.0235 629.222 14.2969 628.664 14.9325C628.088 15.557 627.764 16.373 627.754 17.2228ZM713.217 93.2308C717.355 93.2308 717.361 87.0154 713.217 87.0154C709.073 87.0154 709.07 93.2308 713.217 93.2308Z" fill="#FF3F39"/>
<path d="M321.646 57.4917C325.786 57.4917 325.792 51.2763 321.646 51.2763C317.502 51.2763 317.502 57.4917 321.646 57.4917ZM108.769 57.4917C112.909 57.4917 112.915 51.2763 108.769 51.2763C104.625 51.2763 104.625 57.4917 108.769 57.4917ZM803.338 62.1532C807.478 62.1532 807.484 55.9378 803.338 55.9378C799.194 55.9378 799.194 62.1532 803.338 62.1532ZM333.3 6.21477H330.192C328.158 6.21477 326.213 7.64586 326.311 9.32246C326.41 10.9991 328.02 12.4302 330.194 12.4302H333.298C335.334 12.4302 337.282 10.9991 337.181 9.32246C337.08 7.64586 335.472 6.21477 333.298 6.21477H333.3ZM120.423 6.21477H117.315C115.281 6.21477 113.336 7.64586 113.434 9.32246C113.533 10.9991 115.143 12.4302 117.317 12.4302H120.421C122.457 12.4302 124.406 10.9991 124.305 9.32246C124.204 7.64586 122.595 6.21477 120.421 6.21477H120.423ZM814.992 10.8763H811.885C809.851 10.8763 807.905 12.3074 808.003 13.984C808.102 15.6606 809.712 17.0917 811.886 17.0917H814.991C817.026 17.0917 818.975 15.6606 818.874 13.984C818.773 12.3074 817.165 10.8763 814.991 10.8763H814.992ZM390.704 0.950339L389.409 2.24314C388.812 2.85602 388.473 3.67472 388.461 4.5304C388.468 5.38657 388.808 6.20855 389.409 6.81922C390.026 7.38326 390.837 7.8028 391.7 7.76706C392.555 7.75251 393.373 7.41374 393.988 6.81922L395.283 5.52642C395.88 4.91265 396.218 4.09377 396.231 3.2376C396.225 2.38084 395.885 1.56023 395.283 0.950339C394.666 0.383185 393.855 -0.036353 392.992 0.0024932C392.137 0.016576 391.319 0.355416 390.704 0.950339ZM177.827 0.950339L176.532 2.24314C175.935 2.85602 175.596 3.67472 175.585 4.5304C175.591 5.38657 175.931 6.20855 176.532 6.81922C177.149 7.38326 177.96 7.8028 178.823 7.76706C179.678 7.75251 180.496 7.41374 181.112 6.81922L182.406 5.52642C183.003 4.91265 183.341 4.09377 183.354 3.2376C183.348 2.38084 183.008 1.56023 182.406 0.950339C181.789 0.383185 180.978 -0.036353 180.116 0.0024932C179.26 0.016576 178.442 0.355416 177.827 0.950339ZM872.396 5.61188L871.102 6.90468C870.504 7.51756 870.165 8.33626 870.154 9.19194C870.16 10.0481 870.5 10.8701 871.102 11.4808C871.718 12.0448 872.53 12.4643 873.392 12.4286C874.247 12.4141 875.065 12.0753 875.681 11.4808L876.975 10.188C877.572 9.57419 877.911 8.75531 877.923 7.89914C877.917 7.04237 877.577 6.22177 876.975 5.61188C876.358 5.04472 875.547 4.62519 874.685 4.66403C873.829 4.67811 873.011 5.01695 872.396 5.61188ZM414.011 41.3503L412.717 42.6431C412.12 43.256 411.78 44.0747 411.769 44.9304C411.775 45.7866 412.116 46.6086 412.717 47.2177C413.335 47.7848 414.145 48.2044 415.006 48.1655C415.861 48.151 416.679 47.8122 417.295 47.2177L418.589 45.9249C418.89 45.6247 419.128 45.2681 419.291 44.8757C419.454 44.4832 419.538 44.0625 419.538 43.6376C419.538 43.2127 419.454 42.792 419.291 42.3995C419.128 42.0071 418.89 41.6505 418.589 41.3503C417.972 40.7832 417.161 40.3636 416.3 40.4025C415.446 40.418 414.627 40.7552 414.011 41.3503ZM201.134 41.3503L199.84 42.6431C199.243 43.256 198.904 44.0747 198.892 44.9304C198.898 45.7866 199.239 46.6086 199.84 47.2177C200.459 47.7848 201.268 48.2044 202.129 48.1655C202.984 48.151 203.802 47.8122 204.418 47.2177L205.712 45.9249C206.013 45.6247 206.251 45.2681 206.414 44.8757C206.577 44.4832 206.661 44.0625 206.661 43.6376C206.661 43.2127 206.577 42.792 206.414 42.3995C206.251 42.0071 206.013 41.6505 205.712 41.3503C205.095 40.7832 204.284 40.3636 203.423 40.4025C202.569 40.418 201.75 40.7552 201.134 41.3503ZM895.704 46.0119L894.409 47.3047C893.812 47.9176 893.473 48.7363 893.461 49.5919C893.468 50.4481 893.808 51.2701 894.409 51.8792C895.028 52.4464 895.837 52.8659 896.698 52.827C897.554 52.8125 898.372 52.4737 898.987 51.8792L900.281 50.5864C900.582 50.2862 900.82 49.9297 900.983 49.5372C901.146 49.1447 901.23 48.724 901.23 48.2991C901.23 47.8743 901.146 47.4535 900.983 47.0611C900.82 46.6686 900.582 46.3121 900.281 46.0119C899.664 45.4447 898.853 45.0252 897.992 45.064C897.138 45.0796 896.319 45.4168 895.704 46.0119ZM454.411 5.60877L453.117 6.90312C452.52 7.51636 452.181 8.33484 452.169 9.19039C452.175 10.0481 452.516 10.8685 453.117 11.4792C453.735 12.0464 454.545 12.4659 455.406 12.427C456.262 12.4134 457.08 12.0745 457.695 11.4792L458.989 10.1864C459.29 9.88616 459.529 9.52943 459.692 9.13667C459.855 8.74391 459.939 8.32284 459.939 7.89759C459.939 7.47233 459.855 7.05126 459.692 6.6585C459.529 6.26574 459.29 5.90902 458.989 5.60877C458.372 5.04472 457.561 4.62519 456.7 4.66403C455.845 4.67743 455.027 5.01511 454.411 5.60877ZM241.534 5.60877L240.24 6.90312C239.643 7.51636 239.304 8.33484 239.292 9.19039C239.298 10.0481 239.639 10.8685 240.24 11.4792C240.859 12.0464 241.668 12.4659 242.529 12.427C243.385 12.4134 244.203 12.0745 244.818 11.4792L246.112 10.1864C246.413 9.88616 246.652 9.52943 246.815 9.13667C246.978 8.74391 247.062 8.32284 247.062 7.89759C247.062 7.47233 246.978 7.05126 246.815 6.6585C246.652 6.26574 246.413 5.90902 246.112 5.60877C245.495 5.04472 244.684 4.62519 243.823 4.66403C242.968 4.67743 242.15 5.01511 241.534 5.60877ZM503.446 7.89759V9.19194C503.455 10.0415 503.779 10.8575 504.357 11.4808C504.942 12.0852 505.73 12.4255 506.554 12.4302C507.357 12.3929 508.19 12.1178 508.751 11.4823C509.323 10.867 509.649 10.0481 509.661 9.19194V7.89759C509.653 7.04752 509.328 6.23105 508.751 5.60722C508.466 5.31146 508.125 5.07546 507.748 4.91299C507.37 4.75051 506.965 4.66482 506.554 4.66092C505.75 4.69822 504.918 4.97325 504.357 5.60877C503.781 6.23285 503.457 7.04742 503.446 7.89603V7.89759ZM572.504 2.50419L571.209 3.79699C570.612 4.40951 570.272 5.22844 570.261 6.08425C570.268 6.94042 570.608 7.7624 571.209 8.37151C571.826 8.93866 572.637 9.3582 573.5 9.31936C574.355 9.30481 575.173 8.96604 575.789 8.37151L577.083 7.07871C577.68 6.46649 578.018 5.64762 578.031 4.79145C578.025 3.93465 577.685 3.11398 577.083 2.50419C576.463 1.93703 575.655 1.51749 574.792 1.55634C573.937 1.57011 573.118 1.909 572.504 2.50419ZM612.215 12.4302C616.355 12.4302 616.361 6.21477 612.215 6.21477C608.071 6.21477 608.071 12.4302 612.215 12.4302ZM641.738 4.79145V6.08425C641.749 6.94042 642.074 7.76085 642.649 8.37462C643.235 8.97751 644.023 9.3178 644.846 9.32246C645.651 9.28517 646.482 9.01014 647.043 8.37462C647.617 7.75929 647.941 6.94042 647.954 6.08425V4.79145C647.946 3.9413 647.621 3.12467 647.043 2.50108C646.759 2.20477 646.418 1.96829 646.04 1.80553C645.663 1.64276 645.257 1.55699 644.846 1.55323C644.043 1.59052 643.21 1.86555 642.649 2.50108C642.072 3.12547 641.748 3.94159 641.738 4.79145ZM688.354 10.7458V9.45299C688.345 8.60292 688.021 7.78645 687.443 7.16262C687.158 6.86714 686.817 6.63121 686.44 6.46851C686.062 6.30581 685.657 6.21956 685.246 6.21477C684.443 6.25362 683.61 6.52709 683.049 7.16262C682.473 7.78717 682.148 8.60319 682.138 9.45299V10.7458C682.149 11.602 682.476 12.4224 683.049 13.0362C683.635 13.639 684.423 13.9793 685.246 13.984C686.049 13.9467 686.882 13.6717 687.443 13.0362C688.015 12.4208 688.341 11.602 688.354 10.7458ZM282.8 12.4302C286.939 12.4302 286.946 6.21477 282.8 6.21477C278.656 6.21477 278.656 12.4302 282.8 12.4302ZM69.923 12.4302C74.0625 12.4302 74.0687 6.21477 69.923 6.21477C65.7789 6.21477 65.7789 12.4302 69.923 12.4302ZM764.492 17.0917C768.632 17.0917 768.638 10.8763 764.492 10.8763C760.348 10.8763 760.348 17.0917 764.492 17.0917ZM340.292 60.5994C344.432 60.5994 344.439 54.384 340.292 54.384C336.147 54.384 336.15 60.5994 340.292 60.5994ZM127.415 60.5994C131.555 60.5994 131.563 54.384 127.415 54.384C123.27 54.384 123.273 60.5994 127.415 60.5994ZM821.985 65.2609C826.124 65.2609 826.132 59.0455 821.985 59.0455C817.839 59.0455 817.842 65.2609 821.985 65.2609ZM352.723 83.9071C356.862 83.9071 356.869 77.6917 352.723 77.6917C348.579 77.6917 348.579 83.9071 352.723 83.9071ZM139.846 83.9071C143.986 83.9071 143.992 77.6917 139.846 77.6917C135.702 77.6917 135.702 83.9071 139.846 83.9071ZM834.415 88.5686C838.555 88.5686 838.561 82.3532 834.415 82.3532C830.271 82.3532 830.271 88.5686 834.415 88.5686ZM382.246 76.1378C386.386 76.1378 386.392 69.9225 382.246 69.9225C378.102 69.9225 378.102 76.1378 382.246 76.1378ZM169.369 76.1378C173.509 76.1378 173.515 69.9225 169.369 69.9225C165.225 69.9225 165.225 76.1378 169.369 76.1378ZM863.938 80.7994C868.078 80.7994 868.084 74.584 863.938 74.584C859.794 74.584 859.794 80.7994 863.938 80.7994ZM466.154 54.5145V55.8073C466.163 56.665 466.489 57.4855 467.064 58.0977C467.65 58.7006 468.438 59.0409 469.261 59.0455C470.065 59.0082 470.898 58.7332 471.459 58.0977C472.03 57.4824 472.357 56.6635 472.369 55.8073V54.5145C472.361 53.6644 472.036 52.8477 471.459 52.2242C471.174 51.9281 470.833 51.6917 470.456 51.529C470.078 51.3662 469.672 51.2803 469.261 51.2763C468.457 51.3136 467.622 51.5886 467.064 52.2242C466.488 52.8487 466.164 53.6647 466.154 54.5145ZM481.692 79.2455C485.832 79.2455 485.838 73.0302 481.692 73.0302C477.548 73.0302 477.548 79.2455 481.692 79.2455ZM536.077 48.1686C540.216 48.1686 540.223 41.9532 536.077 41.9532C531.933 41.9532 531.933 48.1686 536.077 48.1686ZM601.338 80.7994C605.478 80.7994 605.484 74.584 601.338 74.584C597.194 74.584 597.194 80.7994 601.338 80.7994ZM602.892 146.061C607.032 146.061 607.038 139.846 602.892 139.846C598.748 139.846 598.748 146.061 602.892 146.061ZM835.969 146.061C840.109 146.061 840.115 139.846 835.969 139.846C831.825 139.846 831.825 146.061 835.969 146.061ZM820.431 242.399C824.57 242.399 824.576 236.184 820.431 236.184C816.287 236.184 816.287 242.399 820.431 242.399ZM734.969 142.953C739.109 142.953 739.115 136.738 734.969 136.738C730.825 136.738 730.825 142.953 734.969 142.953ZM669.708 40.3994C673.847 40.3994 673.853 34.184 669.708 34.184C665.564 34.184 665.564 40.3994 669.708 40.3994ZM702.34 170.922C706.478 170.922 706.486 164.707 702.34 164.707C698.194 164.707 698.194 170.922 702.34 170.922ZM919.878 267.261C924.016 267.261 924.024 261.046 919.878 261.046C915.733 261.046 915.733 267.261 919.878 267.261ZM834.417 167.815C838.555 167.815 838.562 161.599 834.417 161.599C830.271 161.599 830.271 167.815 834.417 167.815ZM863.94 194.23C868.078 194.23 868.086 188.015 863.94 188.015C859.794 188.015 859.794 194.23 863.94 194.23ZM306.108 201.999C310.247 201.999 310.253 195.784 306.108 195.784C301.964 195.784 301.964 201.999 306.108 201.999ZM161.6 223.753C165.739 223.753 165.746 217.538 161.6 217.538C157.456 217.538 157.456 223.753 161.6 223.753Z" fill="#F48738"/>
<path d="M632.415 93.2309C636.555 93.2309 636.561 87.0155 632.415 87.0155C628.271 87.0155 628.271 93.2309 632.415 93.2309ZM270.371 26.4155C274.509 26.4155 274.516 20.2001 270.371 20.2001C266.225 20.2001 266.225 26.4155 270.371 26.4155ZM57.4938 26.4155C61.6317 26.4155 61.6395 20.2001 57.4938 20.2001C53.3481 20.2001 53.3481 26.4155 57.4938 26.4155ZM752.063 31.077C756.201 31.077 756.209 24.8617 752.063 24.8617C747.917 24.8617 747.917 31.077 752.063 31.077ZM306.108 6.2155C310.247 6.2155 310.253 0.000113487 306.108 0.000113487C301.964 0.000113487 301.964 6.2155 306.108 6.2155ZM93.2307 6.2155C97.3702 6.2155 97.3764 0.000113487 93.2307 0.000113487C89.0866 0.000113487 89.0866 6.2155 93.2307 6.2155ZM787.8 10.877C791.939 10.877 791.946 4.66165 787.8 4.66165C783.656 4.66165 783.656 10.877 787.8 10.877ZM352.723 6.2155C356.862 6.2155 356.869 0.000113487 352.723 0.000113487C348.579 0.000113487 348.579 6.2155 352.723 6.2155ZM139.846 6.2155C143.986 6.2155 143.992 0.000113487 139.846 0.000113487C135.702 0.000113487 135.702 6.2155 139.846 6.2155ZM834.415 10.877C838.555 10.877 838.561 4.66165 834.415 4.66165C830.271 4.66165 830.271 10.877 834.415 10.877ZM203.554 32.6309C207.693 32.6309 207.699 26.4155 203.554 26.4155C199.41 26.4155 199.41 32.6309 203.554 32.6309ZM731.861 37.2924C736.001 37.2924 736.007 31.077 731.861 31.077C727.717 31.077 727.717 37.2924 731.861 37.2924ZM251.723 69.9232C255.862 69.9232 255.869 63.7078 251.723 63.7078C247.579 63.7078 247.579 69.9232 251.723 69.9232ZM38.8461 69.9232C42.9855 69.9232 42.9918 63.7078 38.8461 63.7078C34.702 63.7078 34.702 69.9232 38.8461 69.9232ZM733.415 74.5847C737.555 74.5847 737.561 68.3694 733.415 68.3694C729.271 68.3694 729.271 74.5847 733.415 74.5847ZM284.354 127.415C288.493 127.415 288.499 121.2 284.354 121.2C280.21 121.2 280.21 127.415 284.354 127.415ZM139.846 149.169C143.986 149.169 143.992 142.954 139.846 142.954C135.702 142.954 135.702 149.169 139.846 149.169ZM382.566 49.7232H383.48C384.86 49.7403 386.107 48.9805 386.611 47.812C386.823 47.4503 386.926 47.0345 386.906 46.6155L386.783 45.7873C386.617 45.2596 386.312 44.7863 385.901 44.4168C385.227 43.8371 384.369 43.5151 383.48 43.5078H382.566C381.186 43.4892 379.937 44.2505 379.435 45.419C379.223 45.7802 379.12 46.1954 379.14 46.6139L379.264 47.4406C379.423 47.9596 379.726 48.4304 380.145 48.8111C380.795 49.3829 381.662 49.7077 382.566 49.7201V49.7232ZM169.689 49.7232H170.603C171.983 49.7403 173.23 48.9805 173.734 47.812C173.946 47.4503 174.049 47.0345 174.029 46.6155L173.906 45.7873C173.74 45.2596 173.436 44.7863 173.024 44.4168C172.35 43.8371 171.492 43.5151 170.603 43.5078H169.689C168.309 43.4892 167.06 44.2505 166.558 45.419C166.346 45.7802 166.243 46.1954 166.263 46.6139L166.387 47.4406C166.546 47.9596 166.849 48.4304 167.268 48.8111C167.918 49.3829 168.785 49.7077 169.689 49.7201V49.7232ZM864.258 54.3847H865.172C866.552 54.4018 867.8 53.642 868.303 52.4735C868.516 52.1118 868.618 51.6961 868.598 51.277L868.476 50.4488C868.31 49.9212 868.005 49.4478 867.593 49.0783C866.919 48.4987 866.061 48.1766 865.172 48.1693H864.258C862.879 48.1507 861.629 48.9121 861.127 50.0806C860.915 50.4418 860.813 50.857 860.832 51.2755L860.957 52.1021C861.115 52.6211 861.418 53.0919 861.838 53.4726C862.487 54.0444 863.354 54.3692 864.258 54.3816V54.3847ZM413.006 82.354H412.092C410.711 82.3353 409.462 83.0967 408.96 84.2652C408.748 84.6273 408.646 85.0427 408.665 85.4617L408.787 86.2899C408.944 86.8073 409.249 87.2797 409.668 87.6588C410.319 88.2306 411.186 88.5569 412.092 88.5694H413.006C414.875 88.5212 416.378 87.16 416.431 85.4663L416.306 84.6381C416.142 84.1107 415.839 83.6375 415.427 83.2692C414.752 82.6881 413.893 82.3655 413.003 82.3586L413.006 82.354ZM200.129 82.354H199.215C197.834 82.3353 196.585 83.0967 196.083 84.2652C195.871 84.6273 195.769 85.0427 195.788 85.4617L195.91 86.2899C196.067 86.8073 196.372 87.2797 196.791 87.6588C197.443 88.2306 198.31 88.5569 199.215 88.5694H200.129C201.998 88.5212 203.501 87.16 203.554 85.4663L203.429 84.6381C203.266 84.1107 202.962 83.6375 202.55 83.2692C201.875 82.6881 201.016 82.3655 200.126 82.3586L200.129 82.354ZM349.068 137.92L349.98 138.836C350.28 139.166 350.66 139.411 351.082 139.548C351.917 139.946 352.885 139.946 353.721 139.548C354.143 139.411 354.524 139.166 354.824 138.836C355.422 138.177 355.87 137.318 355.828 136.4C355.812 135.49 355.454 134.62 354.824 133.963L353.912 133.047C353.259 132.425 352.392 132.079 351.49 132.079C350.589 132.079 349.721 132.425 349.068 133.047C348.469 133.702 348.023 134.565 348.065 135.482C348.08 136.394 348.438 137.264 349.068 137.92ZM204.561 159.673L205.473 160.59C205.773 160.92 206.152 161.165 206.574 161.302C207.409 161.7 208.377 161.7 209.213 161.302C209.636 161.165 210.016 160.92 210.316 160.59C210.914 159.931 211.362 159.072 211.32 158.154C211.305 157.244 210.946 156.374 210.316 155.717L209.404 154.8C208.751 154.179 207.884 153.833 206.982 153.833C206.081 153.833 205.214 154.179 204.561 154.8C203.961 155.456 203.515 156.319 203.557 157.235C203.572 158.147 203.93 159.018 204.561 159.673ZM540.738 32.6309C544.878 32.6309 544.884 26.4155 540.738 26.4155C536.594 26.4155 536.594 32.6309 540.738 32.6309ZM447.508 37.2924C451.647 37.2924 451.653 31.077 447.508 31.077C443.364 31.077 443.364 37.2924 447.508 37.2924ZM234.631 37.2924C238.77 37.2924 238.776 31.077 234.631 31.077C230.487 31.077 230.487 37.2924 234.631 37.2924ZM929.2 41.954C933.339 41.954 933.346 35.7386 929.2 35.7386C925.056 35.7386 925.056 41.954 929.2 41.954ZM509.661 67.134V68.0462C509.643 69.4275 510.404 70.6768 511.57 71.1771C511.938 71.3947 512.351 71.4957 512.766 71.4739L513.594 71.3496C514.113 71.1942 514.586 70.8897 514.965 70.4702C515.537 69.8175 515.861 68.952 515.875 68.0462V67.134C515.893 66.6786 515.801 66.2254 515.606 65.8133C515.109 64.564 514.006 63.7436 512.769 63.7078L511.943 63.829C511.415 63.9937 510.942 64.2982 510.574 64.71C509.993 65.3851 509.671 66.2439 509.665 67.134H509.661ZM587.717 27.4224L586.804 28.3345C586.476 28.6348 586.231 29.0148 586.094 29.4377C585.9 29.8505 585.799 30.3009 585.799 30.7569C585.799 31.213 585.9 31.6634 586.094 32.0762C586.232 32.4988 586.476 32.8795 586.804 33.1794C587.456 33.7776 588.316 34.2236 589.228 34.1816C590.134 34.1661 590.999 33.8087 591.652 33.1778L592.565 32.2657C592.892 31.9658 593.137 31.5867 593.276 31.1641C593.47 30.7508 593.57 30.2998 593.57 29.8433C593.57 29.3867 593.47 28.9358 593.276 28.5225C593.138 28.1006 592.893 27.7216 592.565 27.4224C591.913 26.8226 591.053 26.3767 590.141 26.4186C589.235 26.4341 588.37 26.7915 587.717 27.4224ZM699.232 35.7386C703.37 35.7386 703.378 29.5232 699.232 29.5232C695.087 29.5232 695.087 35.7386 699.232 35.7386ZM715.133 28.9747L714.219 29.8883C713.893 30.1867 713.649 30.5674 713.512 30.99C713.317 31.4029 713.215 31.854 713.215 32.3108C713.215 32.7676 713.317 33.2187 713.512 33.6316C713.649 34.0527 713.893 34.4318 714.219 34.7317C714.872 35.3315 715.731 35.7774 716.643 35.7355C717.549 35.7203 718.416 35.3615 719.067 34.7317L719.981 33.8196C720.307 33.5197 720.551 33.1405 720.688 32.7179C720.883 32.3055 720.984 31.8549 720.984 31.3987C720.984 30.9424 720.883 30.4918 720.688 30.0795C720.551 29.6568 720.308 29.2767 719.981 28.9762C719.328 28.378 718.469 27.9336 717.557 27.9725C716.651 27.9872 715.785 28.3454 715.133 28.9747ZM712.027 1.00701L711.115 1.91911C710.787 2.21901 710.543 2.59814 710.406 3.02079C710.192 3.42692 710.09 3.88287 710.111 4.34156C710.089 4.79839 710.192 5.25367 710.406 5.65922C710.543 6.08187 710.787 6.46256 711.115 6.76245C711.767 7.36224 712.623 7.80819 713.535 7.76624C714.441 7.7507 715.307 7.39332 715.959 6.76245L716.872 5.85034C717.198 5.55045 717.442 5.17131 717.579 4.74867C717.791 4.34311 717.894 3.88784 717.874 3.4279C717.893 2.97034 717.791 2.51579 717.579 2.11024C717.443 1.68731 717.199 1.30707 716.872 1.00701C716.216 0.408776 715.361 -0.0387325 714.448 0.00322104C713.543 0.0187597 712.676 0.376145 712.027 1.00701ZM725.648 158.492C729.786 158.492 729.793 152.277 725.648 152.277C721.502 152.277 721.502 158.492 725.648 158.492ZM857.724 155.385C861.862 155.385 861.87 149.169 857.724 149.169C853.579 149.169 853.579 155.385 857.724 155.385ZM887.248 181.8C891.385 181.8 891.393 175.585 887.248 175.585C883.102 175.585 883.102 181.8 887.248 181.8ZM654.169 146.062C658.309 146.062 658.315 139.846 654.169 139.846C650.025 139.846 650.025 146.062 654.169 146.062ZM887.246 146.062C891.385 146.062 891.392 139.846 887.246 139.846C883.102 139.846 883.102 146.062 887.246 146.062ZM871.708 242.4C875.847 242.4 875.853 236.185 871.708 236.185C867.563 236.185 867.563 242.4 871.708 242.4ZM786.246 142.954C790.385 142.954 790.392 136.739 786.246 136.739C782.102 136.739 782.102 142.954 786.246 142.954ZM453.723 98.2141V99.1277C453.77 100.997 455.132 102.501 456.828 102.554L457.656 102.433C458.175 102.276 458.647 101.971 459.028 101.552C459.6 100.899 459.926 100.032 459.938 99.1246V98.211C459.892 96.3401 458.529 94.8345 456.834 94.7847L456.006 94.909C455.477 95.0729 455.003 95.3774 454.634 95.7901C454.052 96.4652 453.73 97.3248 453.723 98.2156V98.2141ZM240.846 98.2141V99.1277C240.893 100.997 242.255 102.501 243.951 102.554L244.779 102.433C245.298 102.276 245.77 101.971 246.151 101.552C246.723 100.899 247.049 100.032 247.061 99.1246V98.211C247.015 96.3401 245.652 94.8345 243.957 94.7847L243.129 94.909C242.6 95.0729 242.126 95.3774 241.757 95.7901C241.175 96.4652 240.853 97.3248 240.846 98.2156V98.2141ZM206.661 96.3386C210.801 96.3386 210.807 90.1232 206.661 90.1232C202.517 90.1232 202.517 96.3386 206.661 96.3386ZM175.221 180.793L176.135 179.881C176.461 179.581 176.706 179.201 176.842 178.778C177.037 178.366 177.138 177.915 177.138 177.459C177.138 177.002 177.037 176.552 176.842 176.139C176.706 175.717 176.462 175.336 176.135 175.036C175.482 174.438 174.623 173.992 173.711 174.034C172.805 174.048 171.938 174.407 171.287 175.038L170.373 175.95C170.045 176.25 169.802 176.63 169.666 177.053C169.471 177.465 169.369 177.916 169.369 178.372C169.369 178.829 169.471 179.279 169.666 179.692C169.803 180.114 170.047 180.495 170.373 180.795C171.026 181.393 171.885 181.839 172.797 181.797C173.703 181.783 174.57 181.424 175.221 180.793ZM30.7133 202.547L31.6269 201.635C31.9532 201.335 32.1987 200.954 32.3339 200.532C32.5293 200.119 32.6306 199.669 32.6306 199.213C32.6306 198.756 32.5293 198.306 32.3339 197.893C32.1979 197.47 31.9543 197.09 31.6269 196.79C30.9743 196.192 30.115 195.746 29.2029 195.788C28.297 195.802 27.43 196.161 26.7789 196.792L25.8653 197.704C25.5377 198.004 25.2941 198.384 25.1583 198.807C24.9629 199.219 24.8616 199.67 24.8616 200.126C24.8616 200.582 24.9629 201.033 25.1583 201.445C25.295 201.868 25.539 202.249 25.8653 202.549C26.5179 203.147 27.3772 203.593 28.2893 203.551C29.1955 203.536 30.0622 203.178 30.7133 202.547ZM585.8 186.783V187.697C585.847 189.568 587.209 191.073 588.904 191.123L589.733 191.002C590.252 190.845 590.724 190.541 591.105 190.121C591.677 189.468 592.003 188.601 592.015 187.694V186.78C591.967 184.911 590.604 183.408 588.911 183.354L588.083 183.478C587.553 183.642 587.079 183.946 586.71 184.359C586.129 185.034 585.807 185.894 585.8 186.785V186.783ZM576.84 70.9301L575.928 71.8422C575.439 72.3166 575.108 72.9309 574.981 73.6007C574.854 74.2706 574.938 74.9633 575.22 75.5839C575.357 76.0065 575.6 76.3872 575.928 76.6871C576.583 77.2853 577.439 77.7313 578.352 77.6893C579.259 77.676 580.126 77.3169 580.776 76.6855L581.688 75.7734C582.015 75.4735 582.259 75.0944 582.395 74.6718C582.591 74.2589 582.692 73.8078 582.692 73.351C582.692 72.8942 582.591 72.4431 582.395 72.0302C582.259 71.6085 582.015 71.2294 581.688 70.9301C581.036 70.3303 580.177 69.8843 579.264 69.9263C578.358 69.9415 577.492 70.3003 576.84 70.9301ZM560.945 31.3956V32.3077C560.926 32.7676 561.016 33.2245 561.209 33.6316C561.706 34.8824 562.809 35.7028 564.046 35.7386L564.873 35.6174C565.39 35.4589 565.862 35.1543 566.24 34.7348C566.815 34.0837 567.138 33.2167 567.151 32.3108V31.3971C567.171 30.9418 567.08 30.4885 566.885 30.0764C566.388 28.8255 565.281 28.0051 564.046 27.9693L563.219 28.0937C562.691 28.2569 562.216 28.561 561.847 28.9731C561.277 29.6257 560.952 30.4912 560.938 31.3971L560.945 31.3956ZM486.354 32.6309C490.493 32.6309 490.499 26.4155 486.354 26.4155C482.21 26.4155 482.21 32.6309 486.354 32.6309ZM438.755 6.2155H440.717C441.663 6.21485 442.581 5.89391 443.322 5.30494C444.005 4.71759 444.394 3.92979 444.4 3.10625C444.31 1.42033 442.781 0.000113487 440.722 0.000113487H438.759C437.785 0.00943661 436.853 0.335744 436.155 0.910667C435.47 1.49647 435.083 2.28582 435.077 3.10936C435.167 4.79528 436.696 6.2155 438.755 6.2155ZM225.878 6.2155H227.84C228.786 6.21485 229.704 5.89391 230.445 5.30494C231.128 4.71759 231.517 3.92979 231.523 3.10625C231.433 1.42033 229.904 0.000113487 227.845 0.000113487H225.883C224.908 0.00943661 223.976 0.335744 223.278 0.910667C222.593 1.49647 222.206 2.28582 222.2 3.10936C222.29 4.79528 223.819 6.2155 225.878 6.2155ZM920.447 10.877H922.41C923.356 10.8764 924.274 10.5554 925.014 9.96648C925.698 9.37913 926.086 8.59133 926.092 7.76779C926.002 6.08187 924.473 4.66165 922.414 4.66165H920.452C919.477 4.67098 918.545 4.99728 917.847 5.57221C917.162 6.15801 916.775 6.94736 916.769 7.7709C916.859 9.45682 918.388 10.877 920.447 10.877ZM529.541 0.00322104H528.628C528.173 -0.016891 527.721 0.0743241 527.31 0.268929C526.887 0.393237 526.507 0.613883 526.207 0.912221C525.879 1.18414 525.635 1.52754 525.498 1.90979C525.286 2.27148 525.183 2.68722 525.203 3.10625L525.326 3.93445C525.483 4.45188 525.786 4.92425 526.207 5.30339C526.856 5.87521 527.723 6.20151 528.628 6.21394H529.541C529.998 6.22948 530.453 6.13781 530.859 5.94513C531.282 5.82082 531.662 5.60018 531.962 5.30339C532.29 5.03147 532.534 4.68651 532.671 4.30427C532.884 3.93601 532.986 3.52424 532.966 3.10781L532.843 2.28271C532.68 1.75436 532.376 1.2805 531.964 0.912221C531.289 0.331511 530.43 0.00935936 529.54 0.00322104H529.541ZM487.361 -0.363486L488.273 0.550175C488.573 0.876483 488.952 1.12199 489.374 1.26028C489.788 1.45432 490.239 1.55491 490.695 1.55491C491.152 1.55491 491.603 1.45432 492.016 1.26028C492.437 1.12199 492.818 0.878037 493.116 0.550175C493.716 -0.10244 494.162 -0.961717 494.12 -1.87382C494.105 -2.77983 493.746 -3.64621 493.116 -4.29783L492.204 -5.21149C491.904 -5.53949 491.524 -5.78413 491.101 -5.92159C490.688 -6.11536 490.238 -6.21582 489.782 -6.21582C489.326 -6.21582 488.875 -6.11536 488.462 -5.92159C488.039 -5.78439 487.659 -5.5397 487.359 -5.21149C486.761 -4.55887 486.315 -3.69959 486.357 -2.78749C486.372 -1.88159 486.73 -1.0161 487.361 -0.363486ZM341.848 34.1847C345.986 34.1847 345.993 27.9693 341.848 27.9693C337.702 27.9693 337.702 34.1847 341.848 34.1847ZM128.971 34.1847C133.109 34.1847 133.116 27.9693 128.971 27.9693C124.825 27.9693 124.825 34.1847 128.971 34.1847ZM823.54 38.8463C827.678 38.8463 827.686 32.6309 823.54 32.6309C819.394 32.6309 819.394 38.8463 823.54 38.8463ZM301.446 43.5078C305.586 43.5078 305.592 37.2924 301.446 37.2924C297.302 37.2924 297.302 43.5078 301.446 43.5078ZM88.5692 43.5078C92.7086 43.5078 92.7148 37.2924 88.5692 37.2924C84.4251 37.2924 84.4251 43.5078 88.5692 43.5078ZM783.138 48.1693C787.278 48.1693 787.284 41.954 783.138 41.954C778.994 41.954 778.994 48.1693 783.138 48.1693ZM292.123 79.2463C296.262 79.2463 296.269 73.0309 292.123 73.0309C287.979 73.0309 287.979 79.2463 292.123 79.2463ZM79.2461 79.2463C83.3855 79.2463 83.3918 73.0309 79.2461 73.0309C75.102 73.0309 75.102 79.2463 79.2461 79.2463ZM37.2922 155.385C41.4317 155.385 41.4379 149.169 37.2922 149.169C33.1481 149.169 33.1481 155.385 37.2922 155.385ZM773.815 83.9078C777.955 83.9078 777.961 77.6924 773.815 77.6924C769.671 77.6924 769.671 83.9078 773.815 83.9078ZM392.803 26.4155H391.889C390.988 26.4497 390.13 26.7729 389.467 27.3261C389.141 27.598 388.897 27.9414 388.76 28.3252C388.548 28.6873 388.446 29.1027 388.465 29.5216L388.587 30.3498C388.744 30.8673 389.047 31.3396 389.467 31.7203C390.118 32.2921 390.983 32.6185 391.891 32.6309H392.803C394.183 32.6495 395.429 31.8897 395.932 30.7243C396.145 30.3622 396.248 29.9459 396.228 29.5263L396.105 28.6981C395.941 28.1696 395.637 27.6957 395.224 27.3276C394.55 26.7469 393.692 26.4242 392.803 26.4171V26.4155ZM179.926 26.4155H179.012C178.111 26.4497 177.253 26.7729 176.59 27.3261C176.264 27.598 176.02 27.9414 175.883 28.3252C175.671 28.6873 175.569 29.1027 175.588 29.5216L175.71 30.3498C175.867 30.8673 176.17 31.3396 176.59 31.7203C177.241 32.2921 178.106 32.6185 179.014 32.6309H179.926C181.306 32.6495 182.552 31.8897 183.055 30.7243C183.268 30.3622 183.371 29.9459 183.351 29.5263L183.228 28.6981C183.064 28.1696 182.76 27.6957 182.347 27.3276C181.673 26.7469 180.815 26.4242 179.926 26.4171V26.4155ZM874.495 31.077H873.582C872.68 31.1112 871.823 31.4344 871.159 31.9876C870.833 32.2595 870.589 32.6029 870.452 32.9867C870.241 33.3488 870.138 33.7643 870.157 34.1832L870.28 35.0114C870.437 35.5288 870.74 36.0012 871.159 36.3819C871.81 36.9537 872.676 37.28 873.583 37.2924H874.495C875.875 37.3111 877.121 36.5512 877.625 35.3859C877.837 35.0237 877.94 34.6074 877.92 34.1878L877.797 33.3596C877.634 32.8311 877.329 32.3573 876.916 31.9891C876.242 31.4084 875.385 31.0858 874.495 31.0786V31.077ZM622.542 36.9475L623.456 37.8705C624.107 38.4966 624.975 38.8463 625.878 38.8463C626.782 38.8463 627.65 38.4966 628.301 37.8705C628.901 37.2101 629.346 36.3446 629.305 35.4216C629.289 34.5088 628.931 33.6352 628.301 32.9743L627.389 32.0529C626.737 31.4266 625.869 31.0768 624.965 31.0768C624.062 31.0768 623.193 31.4266 622.542 32.0529C621.945 32.7117 621.501 33.5787 621.542 34.5002C621.555 35.4154 621.914 36.2902 622.542 36.9475ZM687.164 77.1424L686.25 78.056C685.761 78.5316 685.431 79.1463 685.304 79.8164C685.177 80.4866 685.26 81.1795 685.541 81.8008C685.678 82.2219 685.922 82.601 686.25 82.9009C686.902 83.5007 687.762 83.9467 688.674 83.9047C689.58 83.8886 690.446 83.5299 691.098 82.9009L692.01 81.9888C693.012 81.0161 693.297 79.5182 692.72 78.2471C692.582 77.8245 692.337 77.4446 692.01 77.1439C691.357 76.5457 690.5 76.0997 689.586 76.1417C688.682 76.1557 687.815 76.5146 687.162 77.1424H687.164ZM243.955 139.846C248.093 139.846 248.101 133.631 243.955 133.631C239.81 133.631 239.81 139.846 243.955 139.846ZM82.3553 161.6C86.4932 161.6 86.501 155.385 82.3553 155.385C78.2097 155.385 78.2097 161.6 82.3553 161.6Z" fill="#3F6CF0"/>
<path d="M383.443 274.55C393.849 270.844 433.386 246.569 433.141 243.341C432.892 240.112 416.712 250.09 415.292 246.177C413.872 242.266 440.612 204.366 438.982 203.672C433.528 201.347 416.041 227.414 414.966 225.205C413.893 222.994 442.071 186.133 437.804 184.318C430.019 180.996 411.606 217.652 409.783 215.24C407.962 212.828 427.432 178.401 422.488 176.294C417.609 174.215 404.859 211.233 402.513 209.85C400.167 208.467 409.816 179.251 406.579 177.87C399.89 175.017 386.746 244.701 362.355 257.75C355.717 261.298 369.885 279.38 383.444 274.55H383.443Z" fill="#802D02"/>
<path d="M354.277 253.277L386.908 282.8C287.275 315.103 212.691 333.749 163.154 338.739C113.617 343.728 45.7671 345.344 -40.3999 343.587L-31.0768 265.708C15.5386 276.585 79.5881 307.707 153.831 304.554C220.129 301.739 286.944 284.646 354.277 253.277Z" fill="#FFBC4D"/>
<path fill-rule="evenodd" clip-rule="evenodd" d="M-7.76915 283.72C24.958 294.196 50.7083 300.671 69.4834 303.143C105.13 307.836 144.641 311.163 188.015 306.989C265.656 299.517 321.802 282.131 356.454 254.831L360.492 259.555C308.698 289.131 251.723 306.509 189.569 311.689C151.098 314.895 111.13 314.387 69.4834 308.465C52.3911 306.035 26.1233 300.376 -9.323 291.489L-7.76915 283.72Z" fill="#FFD079"/>
<path fill-rule="evenodd" clip-rule="evenodd" d="M-9.32303 316.985C22.7981 322.898 50.2499 326.401 73.0308 327.489C113.431 329.415 146.195 325.147 189.569 320.973C267.21 313.501 328.845 296.634 374.477 270.369L377.585 275.031C315.431 303.614 253.277 320.493 191.123 325.674C152.651 328.879 114.985 334.479 73.0308 332.082C51.9513 330.876 24.2198 328.433 -10.1621 324.754L-9.32303 316.985Z" fill="#FFD079"/>
<path d="M95.8723 301.446C93.5322 310.316 92.2099 316.809 91.9038 320.93C91.1424 331.227 92.2922 338.973 95.3533 344.165L98.4113 343.425C95.6656 337.32 94.5577 330.273 95.0891 322.285C95.619 314.297 96.9382 307.351 99.0421 301.446H95.8723ZM123.842 304.554C121.501 312.132 120.179 317.682 119.873 321.202C119.112 330.001 120.261 336.621 123.323 341.057L126.38 340.425C123.635 335.208 122.527 329.187 123.058 322.361C123.588 315.535 124.907 309.599 127.011 304.554H123.842ZM148.703 304.554C146.363 311.81 145.041 317.123 144.735 320.493C143.973 328.918 145.123 335.255 148.184 339.503L151.242 338.897C148.496 333.903 147.388 328.138 147.92 321.603C148.45 315.067 149.769 309.385 151.873 304.554H148.703Z" fill="#FFD079"/>
<path d="M170.214 303.579C170.098 311.203 170.386 316.67 171.08 319.982C172.816 328.261 175.768 333.985 179.936 337.153L182.683 335.679C178.597 331.706 175.852 326.517 174.449 320.112C173.047 313.707 172.646 307.887 173.245 302.653L170.214 303.579Z" fill="#FFD079"/>
<path d="M197.083 300.404C196.778 307.409 196.929 312.426 197.536 315.451C199.052 323.014 201.839 328.198 205.897 331.005L208.66 329.584C204.704 326.036 202.108 321.336 200.876 315.488C199.643 309.637 199.389 304.3 200.115 299.477L197.083 300.404Z" fill="#FFD079"/>
<path d="M221.49 295.812C221.184 302.817 221.336 307.834 221.942 310.859C223.458 318.422 226.245 323.607 230.304 326.413L233.066 324.992C229.111 321.442 226.516 316.743 225.284 310.895C224.049 305.045 223.797 299.708 224.523 294.885L221.491 295.811L221.49 295.812Z" fill="#FFD079"/>
<path d="M249.459 289.596C249.154 296.601 249.305 301.618 249.911 304.643C251.427 312.207 254.215 317.391 258.274 320.197L261.035 318.776C257.08 315.226 254.485 310.528 253.253 304.679C252.019 298.829 251.766 293.492 252.492 288.669L249.46 289.595L249.459 289.596Z" fill="#FFD079"/>
<path d="M275.419 281.896C275.115 288.901 275.266 293.918 275.873 296.943C277.389 304.506 280.176 309.691 284.234 312.498L286.997 311.076C283.041 307.526 280.445 302.826 279.213 296.978C277.98 291.129 277.727 285.792 278.453 280.968L275.421 281.896L275.419 281.896Z" fill="#FFD079"/>
<path d="M300.796 272.85C300.585 280.164 300.805 285.407 301.455 288.575C303.081 296.498 305.951 301.951 310.063 304.938L312.819 303.491C308.798 299.73 306.128 294.786 304.81 288.657C303.492 282.53 303.165 276.953 303.827 271.923L300.796 272.85Z" fill="#FFD079"/>
<path d="M316.335 266.636C316.218 274.26 316.507 279.725 317.201 283.039C318.936 291.318 321.889 297.042 326.057 300.21L328.804 298.736C324.718 294.763 321.972 289.573 320.57 283.169C319.167 276.762 318.766 270.943 319.368 265.709L316.335 266.636Z" fill="#FFD079"/>
<path d="M336.534 258.865C336.512 266.796 336.869 272.489 337.608 275.945C339.452 284.583 342.487 290.575 346.711 293.924L349.449 292.426C345.3 288.24 342.48 282.804 340.992 276.121C339.503 269.438 339.029 263.376 339.566 257.936L336.535 258.863L336.534 258.865Z" fill="#FFD079"/>
<path d="M78.7379 298.339C76.401 306.995 75.0802 313.335 74.7756 317.358C74.0143 327.41 75.5293 335.999 79.3191 343.125L81.9062 342.498C78.7426 334.418 77.4265 326.477 77.9564 318.68C78.4862 310.883 79.8023 304.102 81.9062 298.339H78.7379ZM61.8103 295.231C59.3584 303.979 57.9723 310.386 57.6538 314.449C56.8567 324.607 59.0134 334.258 64.1271 343.402L67.4632 342.641C62.5919 332.618 60.4336 323.667 60.9899 315.787C61.5462 307.906 62.926 301.055 65.1325 295.231H61.8103ZM41.6383 290.57C39.365 303.797 38.341 312.612 38.5679 317.016C39.1304 328.016 41.3151 337.553 45.1236 345.633L47.7216 345.03C43.5418 334.27 41.7253 324.777 42.2754 316.556C42.8254 308.333 43.5962 299.67 44.5906 290.57H41.6383ZM22.5524 284.354C20.983 297.93 20.1999 307.354 20.1999 312.63C20.1999 324.61 22.6239 335.539 27.475 345.416L29.9394 344.755C24.8894 330.901 22.6394 319.723 23.1942 311.223C23.7489 302.721 24.5274 293.764 25.5296 284.354H22.5524ZM1.21966 276.642C-0.629417 290.58 -1.55396 300.322 -1.55396 305.867C-1.55396 318.469 1.81478 331.51 8.55071 344.998L11.8526 344.201C4.62103 326.599 1.33309 313.329 1.98881 304.389C2.64454 295.449 3.48828 286.182 4.52158 276.585L1.21966 276.642Z" fill="#FFD079"/>
<path d="M557.769 264.08C504.612 232.899 516.447 240.762 516.632 237.423C516.819 234.082 533.71 244.009 535.092 239.929C536.472 235.847 508.086 197.319 509.749 196.572C515.319 194.042 533.911 220.565 534.967 218.254C536.027 215.944 506.182 178.529 510.532 176.557C518.483 172.947 538.258 210.379 540.086 207.847C541.91 205.314 521.095 170.202 526.145 167.913C531.122 165.65 545.071 203.583 547.46 202.108C549.85 200.635 539.27 170.665 542.577 169.167C549.42 166.059 553.191 235.465 579.195 246.321C600.788 255.337 610.929 295.261 557.77 264.082L557.769 264.08Z" fill="#FFD0BE"/>
<path d="M583.308 239.292L564.046 277.319C596.829 279.868 674.369 322.619 753.615 337.761C848.175 355.832 950.211 341.655 1059.72 295.231L1019.32 214.431C924.445 283.325 840.682 312.127 768.037 300.834C695.393 289.539 633.815 269.027 583.308 239.292Z" fill="#FF3F39"/>
<path d="M584.433 240.846C578.968 252.938 575.243 265.744 573.369 278.881C575.305 279.129 577.269 279.401 579.261 279.692C581.123 266.64 584.897 253.934 590.461 241.982L584.433 240.846ZM607.554 253.649C604.511 261.268 603.349 264.133 601.303 272.041C600.078 276.771 599.174 281.084 598.231 285.907C600.274 286.26 602.291 286.622 604.367 287C605.263 282.338 606.169 278.174 607.366 273.601C609.474 265.543 610.598 262.57 613.769 254.83L607.554 253.649ZM630.948 264.153C628.193 270.133 625.33 276.837 622.982 282.958C621.482 286.874 619.884 290.898 619.068 295.005C620.852 295.334 622.642 295.67 624.433 296.012C625.226 291.734 627.078 287.528 628.624 283.542C630.955 277.53 633.882 271.011 636.623 265.145L630.948 264.153ZM652.6 271.923C647.427 282.085 643.101 291.153 639.364 301.941C641.045 302.325 643.062 303.554 644.75 303.949C648.546 293.084 652.535 283.991 657.788 273.767L652.6 271.923ZM671.95 278.447C668.227 284.01 665.141 289.313 662.303 295.392C660.212 299.878 658.756 304.583 657.788 309.415C659.416 309.813 660.684 310.102 662.303 310.508C663.254 305.668 665.212 301.082 667.301 296.651C670.245 290.454 672.708 285.464 676.635 279.861L671.95 278.447ZM691.461 284.353C687.381 290.261 684.222 294.94 681.278 301.43C679.35 305.679 677.683 310.041 676.287 314.492C676.162 314.89 676.041 315.29 675.923 315.688C677.673 316.119 679.421 316.551 681.17 316.984C681.551 315.746 681.944 314.51 682.367 313.286C683.73 309.331 685.309 305.454 687.095 301.671C690.055 295.431 692.043 291.661 696.123 286.022L691.461 284.353ZM708.99 326.531C710.502 326.975 711.997 327.42 713.475 327.861C718.613 316.717 724.771 306.064 729.19 294.575L724.569 293.676C720.127 304.985 714.042 315.511 708.99 326.531ZM740.414 296.003C734.23 305.897 729.518 317.716 727.671 329.242C727.64 329.429 727.187 331.556 727.2 331.744C728.552 332.134 730.552 332.49 731.861 332.874C732.182 332.53 732.163 330.192 732.23 329.727C734.088 318.279 738.658 306.597 745.04 296.919L740.414 296.003ZM762.177 299.907L758.277 299.207C756.389 303.071 753.921 308.837 752.304 312.834C749.42 319.971 746.499 327.883 745.846 335.817L750.261 337.184C750.441 334.188 751.042 331.213 751.811 328.315C753.135 323.436 754.77 318.646 756.704 313.976C758.268 310.153 761.565 303.764 763.377 300.066L762.177 299.907ZM818.476 302.425L814.358 302.653C812.284 306.752 809.537 313.075 807.759 317.315C804.589 324.882 801.025 335.663 800.307 344.079L805.02 344.273C805.218 341.095 806.371 336.808 807.218 333.735C808.676 328.553 810.472 323.472 812.596 318.526C814.315 314.47 818.187 306.177 820.179 302.254L818.476 302.425ZM837.523 300.025L833.871 300.621C831.796 304.9 829.016 310.275 827.237 314.702C824.06 322.601 820.264 336.213 819.547 344.997L824.225 345.137C824.424 341.821 825.846 335.048 826.694 331.84C828.151 326.44 829.949 321.137 832.078 315.965C833.798 311.732 837.291 303.86 839.287 299.766L837.523 300.025ZM875.379 292.45L871.709 291.888C870.102 296.612 868.107 303.329 866.788 308.191C864.436 316.871 861.642 333.662 861.634 343.128L865.582 344.162C865.519 340.593 867.026 330.103 867.571 326.609C868.519 320.712 869.79 314.908 871.377 309.234C872.654 304.581 875.306 297.157 876.849 292.635L875.379 292.45ZM895.674 287.034L891.917 287C890.974 291.925 889.892 299.362 889.255 304.384C888.119 313.35 887.68 332.221 888.993 341.641L893.137 342.01C892.574 338.468 892.551 326.152 892.607 322.598C892.731 316.597 893.188 310.644 893.977 304.776C894.603 299.97 896.196 291.719 897.105 287.003L895.674 287.034ZM917.186 276.454L913.719 276.267C912.9 281.546 911.969 290.395 911.439 295.793C910.495 305.427 910.419 327.139 911.772 337.385L915.396 337.96C914.822 334.103 914.811 319.478 914.816 315.64C914.853 309.161 915.204 302.748 915.865 296.444C916.388 291.279 917.922 281.629 918.708 276.576L917.186 276.454ZM773.525 341.078C774.499 331.969 779.6 311.367 781.585 302.418L776.834 302.058C774.165 312.826 770.142 328.678 768.924 339.695C770.523 340.174 772.056 340.635 773.525 341.078ZM845.292 345.241C846.405 335.464 853.24 308.906 855.507 299.3L849.674 298.338C846.624 309.894 841.307 333.59 839.916 345.415C841.85 345.278 843.62 345.104 845.292 345.241ZM787.8 343.4C788.406 341.967 797.185 305.119 797.822 303.708L793.841 303C792.58 305.691 785 339.302 783.838 342.045C785.354 342.559 786.68 343.014 787.8 343.4ZM696.673 323.2C702.916 312.492 708.443 301.382 713.215 289.943L707.948 289.015C703.195 300.319 697.687 311.29 691.461 321.854C693.21 322.301 694.947 322.75 696.673 323.2Z" fill="#EE1712"/>
</g>
</svg>
